/* XPM */
static char *_aab10f5ccc74a74db65167bdf32fee8R6di55RpK4gMN3km[] = {
/* columns rows colors chars-per-pixel */
"64 64 175 2 ",
"   c None",
".  c #010200",
"X  c #090703",
"o  c #060902",
"O  c #0A0C03",
"+  c #120E06",
"@  c #0D1204",
"#  c #111605",
"$  c #191106",
"%  c #141B06",
"&  c #181F06",
"*  c #1C1509",
"=  c #171F08",
"-  c #191E08",
";  c #22190B",
":  c #291F0E",
">  c #172007",
",  c #1A2307",
"<  c #1D2807",
"1  c #172008",
"2  c #1B2408",
"3  c #1E2A09",
"4  c #21250A",
"5  c #222D0A",
"6  c #2F2C0F",
"7  c #25320B",
"8  c #29360C",
"9  c #27380C",
"0  c #2C3B0D",
"q  c #303E0E",
"w  c #2F2311",
"e  c #372814",
"r  c #3D2C15",
"t  c #412F15",
"y  c #443216",
"u  c #4B3517",
"i  c #463518",
"p  c #4D3A1A",
"a  c #543E1B",
"s  c #2F410D",
"d  c #32430E",
"f  c #38470F",
"g  c #354A0F",
"h  c #394B0F",
"j  c #374712",
"k  c #364511",
"l  c #324310",
"z  c #354A10",
"x  c #374B10",
"c  c #374912",
"v  c #374D10",
"b  c #364911",
"n  c #384912",
"m  c #384812",
"M  c #394A12",
"N  c #394D11",
"B  c #384F10",
"V  c #394E11",
"C  c #3B4F11",
"Z  c #394D12",
"A  c #3A4F13",
"S  c #3D4F11",
"D  c #3C4F12",
"F  c #3C4E13",
"G  c #394D14",
"H  c #3A4D12",
"J  c #395110",
"K  c #395010",
"L  c #3A5110",
"P  c #3A5111",
"I  c #3B5111",
"U  c #3B5011",
"Y  c #3B5112",
"T  c #3D5011",
"R  c #3E5211",
"E  c #3C5112",
"W  c #3D5112",
"Q  c #3D5012",
"!  c #3E5312",
"~  c #3F5213",
"^  c #3E5412",
"/  c #3F5413",
"(  c #3F5412",
")  c #3D5114",
"_  c #3F5314",
"`  c #3D5212",
"'  c #57401E",
"]  c #5B431E",
"[  c #5F481F",
"{  c #405411",
"}  c #415511",
"|  c #425511",
" . c #415512",
".. c #425713",
"X. c #405514",
"o. c #425415",
"O. c #415615",
"+. c #425714",
"@. c #425516",
"#. c #405617",
"$. c #415716",
"%. c #415513",
"&. c #435815",
"*. c #435A14",
"=. c #425917",
"-. c #435B16",
";. c #445914",
":. c #445B15",
">. c #455916",
",. c #475B17",
"<. c #445C14",
"1. c #455E15",
"2. c #475E15",
"3. c #465C17",
"4. c #475E17",
"5. c #475F16",
"6. c #445B15",
"7. c #495F15",
"8. c #485D17",
"9. c #495D17",
"0. c #485E15",
"q. c #455D18",
"w. c #495D18",
"e. c #495D18",
"r. c #60461F",
"t. c #476115",
"y. c #496017",
"u. c #4B6317",
"i. c #4C6717",
"p. c #4B6316",
"a. c #4E6917",
"s. c #4B6318",
"d. c #4C6518",
"f. c #4C6618",
"g. c #4F6718",
"h. c #4C6518",
"j. c #4F6818",
"k. c #4E6819",
"l. c #506A17",
"z. c #526C17",
"x. c #506719",
"c. c #526D19",
"v. c #557217",
"b. c #55721A",
"n. c #59751B",
"m. c #5C7B1C",
"M. c #617F1D",
"N. c #5D4522",
"B. c #614721",
"V. c #644B22",
"C. c #6B4E24",
"Z. c #6C5124",
"A. c #715325",
"S. c #795626",
"D. c #735529",
"F. c #7C5B2C",
"G. c #627C21",
"H. c #815E2C",
"J. c #86622F",
"K. c #8B662F",
"L. c #866330",
"P. c #8A6531",
"I. c #8E6933",
"U. c #936D35",
"Y. c #9B7237",
"T. c #9D7438",
"R. c #A07439",
"E. c #A4793A",
"W. c #AA7E3C",
"Q. c #63831E",
"!. c #628320",
"~. c #678820",
"^. c #AE803E",
"/. c #B5863F",
"(. c #B58640",
/* pixels */
"                                                    .                                                                           ",
"                                                . . # @ .                                                                       ",
"                                                o 0 g d < .                                                                     ",
"                                              . & L L L h > .                                     . . .                         ",
"                                              . 2 L ` ` ` h # .                                 . & 8 @ .                       ",
"                                              . 5 Y ` ` T F g @ .                             . 7 B B 5 .                       ",
"                                              . 5 ( ( ( ( M %.d o                   . .     . 9 B B ` , .                       ",
"                                                1 %.%.( } Z ` +.& .               . # .   o 0 L ` ` g @                         ",
"                                                O z *.+.) _ l >.s .             . % #   . 7 Z ` L L 7 .                         ",
"                                                . & ) =.Y @.G ` / @ .           O 8 . . & g h L L g @                           ",
"                                                  . 9 =.) F >.Z ,.7 .         . 5 # . # d g g B Z 1 .                           ",
"                                                  . @ +.3.M 0.>.3.j .       . O 8 . . q g d h B 9 .                             ",
"                                                    @ l w.G +.>.s.+.O     . . 5 # . 5 h 0 h ` q .                               ",
"                                . . .               . 5 >./ z >.3.,.@     . O 0 . > h q d %.h @ .                               ",
"                                o 8 d % .       . . . O M w.8 ,.5.s.1 . . . 7 1 # +.h 0 *.` > .                                 ",
"                                @ h B B 9 .     . @ o . 0 s.8 { 5.h.9 . o . G O j >.8 %.*.0 . .                                 ",
"                                . l L ) L 0 O . . O @ # d p.F d 0.x.l O - , 5 > 0.j j e.o.@ .                                   ",
"                                . % L L ` Z d O . . 5 # { l.t.5 u.l.` @ 5 , % Z +.8 >.e.5 .                                     ",
"                                  . 7 L P v g 0 . . & & 1 ;.a.7 %.a.0.% d . 5 p.q / 5.z O .                                     ",
"                                    O s P g d g 7 . . 8 # 3 >.0 h p.p.0 0.O F >.d >.p.% .                                       ",
"                                      @ d L g s h 5 . % 8 . , Z 8 p.v.t.c.@ Z d ) p.` . .                                       ",
"                                      . O g ` z q F < . 7 # . 0 , u.c.c.z.% 7 d 5.c.< . o .                         . . O # # o ",
"                                        . % { *.q d @.% @ 8 . O , *.v.k.v.& # ` z.i.O o 3 .                     . O , d v v g s ",
"                                          . 3 +.>.8 F ) @ 0 @ . @ d b.g.n., & p.v.0 o 0 #                   . 2 g %.F ` ) ` L L ",
"                                          . . l w.>.0 3.d 1 8 . o 3 c.k.n.5 < v.p.@ 8 < .               . @ l +./ M Y / ( ) ` l ",
". . .       . o @ .                         . O +.*.M M 0.5 F @ . % t.g.n.5 < n.s , <.o               . % / +.M M @./ ( ( L L # ",
"s s 7 , @ . . . # , > . .                     . 7 p.>.0 >.` d 0 . O t.a.n.8 , v.7 p.< .             . 5 ,.3.+.>._ F / / %.F 2 . ",
"L ` L L Z d , O . . & 8 # . .                 . o ` p.` d a.( p.@ o ( k.n.9 & *.) ) .         . o . 5 y.w.*.5.F F =./ G 7 @ .   ",
"5 h L L L Z g g 7 @ . O 3 5 o .             . @ . < z.t.d *.z.p.9 . l k.n.0 % @.s.@         . 2 o 7 s.t.-.+.d ) w.L 2 O .       ",
". @ 7 L L Z d d d h d 4 O # 0 # . .         . 2 # . ;.v.*.d v.| d . 0 c.m.8 2 b.7 .       O g & 0 g.u.5.M 0 3.>.8 # o           ",
"    . # 7 g L ` g q 0 { o.5 # 0 1 . .         o g # 5 v.z.q 7.p.0 . 3 b.G.5 0 s.O       o L ( 0 l.g.*.0 0 h.y.5 o .             ",
"          o & 0 { *.` q l >.) 7 0 q @ .         & 7.# p.n.<.d l.0 @ % b.G.% 7 % .     . g c.a.z.l.%.5 ` h.k.Y 2 3 1 o .         ",
"            . . - l e.0.` d Z p.h g } , .       . 0 ( 0 m.n.0 3.d # # b.G.@ . .     . 0 z.l.c.k.z 3 %.z.p.u.p.+.9 @ .           ",
"                . . % F 5.5.M d ;.a.l.;.8 .       o / G g.G.+.s M - O c.k.O o . . . < n.z.z.a.d 5 p.z.p.p.` < o .               ",
"                    . . 5 >.p.*.d z l.p.g % .       @ c.g.!.m.7 %.5 . l./ 9 O . . @ g.b.l.g.9 5 p.v.a.*.5 o .                   ",
"                        . O L z.l.{ q 7.p.0 # .     . 0 m.G.!.l o.0 . p.Y 3.. . o *.b.k.g.5 0 p.z.a.s O                         ",
"                      . % O o 5 z.n.g.d F 5.8 O .     . >.Q.m.u.j z . g.c.h.. . q G.k.3.7 0 l.z.( %                             ",
"                        O < 0 7 & %.n.n.) s ) 0 o .   . # M.n.k.8 Y o c.!.8 . o c.b.h.7 9 y.c.l O                               ",
"                            O 8 *.l Z M.G.s.7 o.7 . . . . %.M.;.3 -.O b.c.@ . 7 m.n.8 0 =.c.5 o . . .                           ",
"                              . @ l s.l.G.!.k.8 o.2 . . . & m.5.3 / @ k.7 3 # 3.n.F 8 e.b.5 o % o . .                           ",
"                                  . @ Z m.Q.m.l.8 *.% . . o b.b.2 l # 0 . 0.7 n.L 3 u.m.m./ M 5 O                               ",
"                                      . # 0.~.b.` 3 F o . . ` M.9 5 @ o > m.b.5.5 g.b.m.b.5 o                                   ",
"                                        . . 0 n.l.0 7 5 . . 1 m.e.2 @ o <.Q.M.5 y.m.m.-.# . .                                   ",
"                                          . . # z.n.0 5 - . o g.k.2 o 3 !.Q.7 ` m.G.z 3 j 3 .                                   ",
"                                            . . > b.n.l 5 . . / l.- . u.m.5.0 b.m.m.+.z % .                                     ",
"                                                . o p.z.j @ . 7 k.% % M.z.7 g.z.Q.c.% .                                         ",
"                                                  . O l.l.5 . # =.o l z.0 ) g.b.8 .                                             ",
"                                                      O ) s., . < o u.F 0 ) h.& . .                                             ",
"                                                    . . X M +.. . @ l.7 g >.O O X . .                                           ",
"                                                  . . : N.u 5 - . 3 Y 0 0 # C.^.L.p O . .                                       ",
"                                                . O a T.(./.C.4 . l 0 1 X C./.(.(.(.W.e . .                                     ",
"                                              . + V.F.Y.(.(.(.C.O ( q . y /././.(.(.(.U.+ .                                     ",
"                                            . . ' H.H.P./././.W.i 6 - ; ] /././.(./././.' . .                                   ",
"                                            . + V.F.H.H.U.(.(.(./.^.E.^.(.(././.(././.(.U.X .                                   ",
"                                          . . t C.N.r.a B.H.Y.Y.Y.Y.Y.Y.U.U.W././././.U.F.* .                                   ",
"                                          . O Z.S.A.C.B.V.C.P.E.E.E.E./././.(./.Y.H.H.R.Y.r .                                   ",
"                                          . $ Z.C.Z.D.F.F.F.D.F.U.Y.Y.T.^././.^././.^.W.U.C..                                   ",
"                                          . $ A.F.F.C.' a ] N.B.V.H.U.T.T.^.(.E.T.R.Y.T.F.D..                                   ",
"                                          . * Z.V.V.V.V.C.C.Z.Z.D.Z.F.U.T.(.^.^./.(.(.U.E.U.O                                   ",
"                                          . * Z.A.D.D.Z.C.C.C.Z.C.C.A.S.P.(.(.(././.(.(.(.E.+                                   ",
"                                          . $ C.C.B.V.r.B.B.B.B.r.Z.r.A.F.L.Y.^.(.(.(.(./.T.+                                   ",
"                                            + y a p i i p p a a [ ' V.F.F.J.J.K.T.E.F.a r e                                     ",
"                                                + ; : w w a Z.V.p p p a a u r w * + .                                           ",
"                                                        X # $ * $ $ . . . .                                                     "
};
