/* XPM */
static char *result[] = {
/* columns rows colors chars-per-pixel */
"64 64 131 2 ",
"   c #020201",
".  c #080502",
"X  c #060A06",
"o  c #0A0906",
"O  c #080408",
"+  c #0A0B0A",
"@  c #110D0A",
"#  c #0F120D",
"$  c #11110F",
"%  c #18140F",
"&  c #110E11",
"*  c #141412",
"=  c #191511",
"-  c #171815",
";  c #1A1A16",
":  c #1A1619",
">  c #1C1C19",
",  c #211E1A",
"<  c #23231E",
"1  c #252522",
"2  c #292623",
"3  c #272924",
"4  c #2C2B25",
"5  c #2E2E28",
"6  c #312F27",
"7  c #302F2A",
"8  c #2F322B",
"9  c #33332C",
"0  c #373734",
"q  c #393731",
"w  c #373830",
"e  c #3C3B34",
"r  c #413E3C",
"t  c #43433B",
"y  c #464640",
"u  c #484540",
"i  c #4B4B43",
"p  c #4C4C4C",
"a  c #514D42",
"s  c #555347",
"d  c #53534A",
"f  c #59574D",
"g  c #5D594D",
"h  c #555555",
"j  c #595757",
"k  c #5C5C53",
"l  c #5D5D5C",
"z  c #626156",
"x  c #656559",
"c  c #67685A",
"v  c #6B695D",
"b  c #666563",
"n  c #6E6D61",
"m  c #6A6A69",
"M  c #716F67",
"N  c #6E7263",
"B  c #737466",
"V  c #767669",
"C  c #797669",
"Z  c #7D7B6E",
"A  c #727372",
"S  c #7A7C7A",
"D  c #7E807D",
"F  c #80806F",
"G  c #848372",
"H  c #888676",
"J  c #8A8877",
"K  c #8C8B7A",
"L  c #8F907C",
"P  c #95917F",
"I  c #848483",
"U  c #868886",
"Y  c #8C8D8B",
"T  c #8F9080",
"R  c #8F918F",
"E  c #949483",
"W  c #999685",
"Q  c #9A9986",
"!  c #92938C",
"~  c #9B9C8B",
"^  c #979991",
"/  c #A09E8B",
"(  c #9EA08E",
")  c #A6A593",
"_  c #A9A693",
"`  c #AAAA95",
"'  c #ADAD9A",
"]  c #B1AE9A",
"[  c #AFB09F",
"{  c #B3B29C",
"}  c #ADACA0",
"|  c #B4B4A1",
" . c #B9B6A0",
".. c #BCBBA5",
"X. c #B8B7AB",
"o. c #BDBDA9",
"O. c #C0BEA6",
"+. c #C2BFA8",
"@. c #BFC0AF",
"#. c #C4C3AB",
"$. c #CAC7AD",
"%. c #CAC8AF",
"&. c #C7C5B1",
"*. c #C9C7B1",
"=. c #CCCBB4",
"-. c #CDCDB8",
";. c #D2CEB6",
":. c #D2D1B6",
">. c #D4D4BB",
",. c #DAD6BD",
"<. c #D7D8BB",
"1. c #DAD9BE",
"2. c #D6DAC1",
"3. c #DDDDC3",
"4. c #E1DEC4",
"5. c #DFE0C9",
"6. c #E4E2C6",
"7. c #E7E4C8",
"8. c #E6E8CC",
"9. c #ECEACE",
"0. c #EDEDD4",
"q. c #F0EED1",
"w. c #F5F4D5",
"e. c #F8F7D7",
"r. c #FCFAD6",
"t. c #F5F6DA",
"y. c #F9F7DA",
"u. c #F7FBDE",
"i. c #FCFBDB",
"p. c #FEFDE3",
"a. c None",
/* pixels */
"a.a.a.a.a.a.a.a.a.a.a.a.a.a.a.a.a.a.a.a.a.a.a.a.a.a.a.a.a.a.a.a.a.a.a.a.a.a.a.a.a.a.a.a.a.a.a.a.a.a.a.a.a.a.a.a.a.a.a.a.a.a.a.a.",
"a.a.a.a.a.a.a.a.a.a.a.a.a.a.a.a.a.      a.a.a.a.a.a.a.a.a.a.a.a.a.a.a.a.a.a.a.a.a.a.a.a.a.a.a.a.a.a.a.a.  3 -   a.a.a.a.a.a.a.a.",
"a.a.a.a.a.a.a.a.a.a.a.a.a.a.. 3 5 X a.a.a.a.a.a.a.a.< Z d ;     a.a.a.a.a.a.a.a.a.a.a.a.a.a.a.a.  X t ( >.u.|     a.a.a.a.a.a.a.",
"a.a.a.a.a.a.a.a.a.a.a.a.  , ! k   a.a.a.a.a.a.a.  e $.Z Z E ` t       a.a.a.a.a.a.a.a.a.a.  a.a.a.a.a.> m p.t.T     a.a.a.a.a.a.",
"a.a.a.a.a.a.a.a.a.a.  * v =.E . a.a.a.a.a.a.a.  O < a.a.a.a.a.n ~ ) c - X a.a.a.a.a.a.a.a.a.a.a.a.a.a.a.  k 3.4.t   a.a.a.a.a.a.",
"a.a.a.a.a.a.a.a.a.+ c 6.t.{ @ a.a.a.a.a.a.a.    a.a.a.a.a.a.a.a.> @.t.w.o.V 3 . a.a.a.a.a.a.a.a.a.a.a.a.a.  i p.=.$   a.a.a.a.a.",
"a.a.a.a.a.a.a.. , P 9.i.i.Q + a.a.a.a.a.a.a.a.a.a.a.a.a.a.a.a.a.  ~ u.i.i.p.:.K 6   a.a.a.a.a.a.a.a.a.a.a.  9 i.i.v     a.a.a.a.",
"a.a.a.a.a.a.O k 4.i.i.i.i._ + a.a.a.a.a.a.a.a.a.a.a.a.a.a.a.a.a.; 8.p.i.i.i.i.i.t.-.e . a.a.a.a.a.a.a.a.a.* ) i.i.,.9   a.a.a.a.",
"a.a.a.a.  O z u.i.i.i.i.i.*.2 a.a.a.a.a.a.a.a.a.a.a.a.a.a.a.a.+ K p.u.u.i.i.i.i.r.p.)   a.a.a.a.a.a.a.  + j 0.i.i.w.Q 3   a.a.a.",
"a.a.a.  3 E 0.y.i.i.i.p.i.q.z + a.a.a.a.a.a.a.a.a.a.a.a.a.a.O Q w.i.i.i.i.i.i.i.i.i.=.< a.a.a.a.a.a.  r ) t.i.i.i.i.e.H     a.a.",
"a.a.a.. 2.i.i.i.i.i.i.i.i.i.i.d X a.a.a.a.a.a.a.a.a.a.a.a.> { i.i.i.i.i.r.u.i.i.i.i.2.5 a.a.a.a.  q O.y.i.i.i.i.i.r.i.w.z o a.a.",
"a.a.. M u.u.i.i.i.i.i.i.i.p.i.w.:.H 0 O a.a.a.a.a.a.a.@ f ,.i.p.i.i.i.i.i.i.i.i.i.p.:.5 a.> d G $.i.i.i.i.i.i.i.i.i.i.i.:.s o a.",
"a.  k 7.i.i.i.i.i.i.i.i.i.i.i.y.r.i.i.2.~ z r 6 7 x K 4.i.i.i.i.i.i.i.i.i.i.r.i.i.y.7...<.e.i.p.i.i.i.i.i.i.i.i.i.p.p.i.i.F O a.",
"a.  B i.i.i.i.i.i.i.i.i.i.i.i.i.i.i.i.u.i.y.,.%.=.w.p.i.i.i.i.i.i.i.i.u.i.i.i.i.i.y.w.i.i.i.i.i.p.i.i.i.i.i.i.i.i.i.i.i.=.5 O a.",
"a.a.> _ e.i.i.i.i.i.i.i.i.i.i.i.i.i.i.i.i.i.i.i.p.i.i.i.u.i.i.i.i.i.i.i.i.i.i.i.i.i.i.i.i.i.i.i.i.i.i.i.i.i.i.i.i.i.i.9.2 O a.a.",
"a.a.  3 0.i.i.i.i.i.i.i.i.i.i.i.i.i.i.i.i.i.i.i.y.i.i.i.r.r.i.i.i.i.i.i.i.i.i.i.i.i.i.i.i.i.i.i.i.i.i.i.i.i.i.i.i.e.w.V   a.a.a.",
"a.a.a.  s :.i.i.i.i.i.i.i.i.i.i.i.i.i.i.i.i.i.i.i.i.i.i.i.r.i.i.i.i.i.i.i.i.i.i.i.i.i.i.i.i.u.r.i.i.i.i.i.i.i.i.i.q.H , a.a.a.a.",
"a.a.a.a.O i 7.e.i.i.i.i.i.i.i.i.i.i.i.i.i.i.i.i.i.i.i.i.i.u.i.i.i.i.i.i.i.u.i.i.i.i.i.i.i.i.i.i.i.i.i.i.i.i.i.i.i.X.= @ a.a.a.a.",
"a.a.a.a.a.+ z w.i.i.i.i.i.i.i.i.i.i.i.i.i.i.i.i.i.i.i.i.i.i.i.r.i.i.i.i.r.i.i.i.i.i.i.i.i.i.i.i.r.i.i.i.i.i.i.i.i.t . a.a.a.a.a.",
"a.a.a.a.a.a.O n q.i.i.i.i.i.i.i.i.i.i.i.i.i.r.i.u.r.r.i.i.i.5.Q e.i.i.i.6.Q i.i.r.i.i.i.i.i.i.i.i.i.i.i.i.i.u.u.K   a.a.a.a.a.a.",
"a.a.a.a.a.a.a.- _ w.y.y.i.i.i.i.i.i.i.i.i.w.=.( D J P _ ' [ K t 5.r.i.i.=.9 G Z N k V Q :.r.u.i.i.u.i.i.i.i.t.>.0 a.a.a.a.a.a.a.",
"a.a.a.a.a.a.a.a.. _ e.i.i.i.i.i.i.i.i.i.i.i.8.:.Z j z j 0 X X d 4.r.i.i.=.r $ + - h b A ' r.i.i.i.i.i.i.i.r.q.v   a.a.a.a.a.a.a.",
"a.a.a.a.a.a.a.a.a.% ] i.i.i.y.y.i.i.i.i.i.i.r.%.R Y Y R h > > h 5.r.i.i.o.I & 0 3 S Y Y R <.i.i.i.r.i.i.i.w.=.  a.a.a.a.a.a.a.a.",
"a.a.a.a.a.a.a.a.a.  ; :.e.p.p.i.i.i.i.i.i.i.i.$.R Y Y Y S 1 * K 5.i.i.i.:.Y 1 : p U R U [ 9.r.i.i.i.i.r.p.2.w a.a.a.a.a.a.a.a.a.",
"a.a.a.a.a.a.a.a.a.a.a.9 ] p.u.t.i.i.i.i.i.i.i.r.5.! U U m l V >.e.r.r.i.i.5.L c m D ^ ` u.i.i.i.i.i.i.i.u.3.8   a.a.a.a.a.a.a.a.",
"a.a.a.a.a.a.a.a.a.a.a.a.: +.t.p.i.i.i.i.i.i.i.r.q.:.[ [ ~ | 5.i.i.i.i.i.i.i.q.*.) [ :.6.i.i.i.i.i.i.i.u.u.t.B   a.a.a.a.a.a.a.a.",
"a.a.a.a.a.a.a.a.a.a.a.  2 q.p.i.i.i.i.i.i.i.i.i.i.i.u.i.i.i.i.i.i.i.i.i.i.i.i.i.i.i.i.i.i.i.i.i.i.i.i.i.i.u.+.+ + a.a.a.a.a.a.a.",
"a.a.a.a.a.a.a.a.a.a.a.  H i.i.i.i.i.i.i.i.i.i.i.i.i.i.i.i.i.i.i.i.i.i.i.u.i.i.i.i.i.i.i.i.i.i.i.i.i.i.i.i.i.p.; X a.a.a.a.a.a.a.",
"a.a.a.a.a.a.a.a.a.a.a.;  .i.i.i.i.i.i.i.i.i.i.i.i.u.r.i.i.i.r.u.u.r.i.i.i.i.i.i.i.i.i.i.i.i.i.i.i.r.u.i.i.i.p.x . a.a.a.a.a.a.a.",
"a.a.a.a.a.a.a.a.a.a.a.9 2.i.i.i.i.i.i.i.i.i.i.i.i.r.i.i.i.i.r.i.i.r.i.i.i.i.i.i.i.u.i.i.i.i.i.i.i.i.i.i.i.i.y.] @ a.a.a.a.a.a.a.",
"a.a.a.a.a.a.a.a.a.a.. t 8.i.i.i.i.i.i.i.i.r.r.i.i.i.i.i.i.i.i.i.i.i.i.i.i.i.i.i.r.r.i.i.i.i.i.i.i.i.i.i.i.i.y.=.6 a.a.a.a.a.a.a.",
"a.a.a.a.a.a.a.a.a.a.+ g w.i.i.i.i.i.i.i.i.i.u.i.i.i.i.i.i.i.i.i.i.i.i.i.i.i.i.i.i.i.i.i.i.i.i.i.i.i.i.i.i.i.y.9.a   a.a.a.a.a.a.",
"a.a.a.a.a.a.a.a.a.a.* z i.i.p.i.i.i.i.i.i.i.i.i.i.i.r.i.i.i.i.i.i.i.i.i.i.r.r.u.i.i.i.i.i.i.i.i.i.i.i.i.i.i.i.i.v   a.a.a.a.a.a.",
"a.a.a.a.a.a.a.a.a.a.+ B p.i.i.i.i.i.i.i.r.i.i.i.i.i.u.i.i.i.i.i.i.i.i.i.i.i.i.i.i.i.i.i.i.i.i.i.i.i.i.i.i.i.i.i._   a.a.a.a.a.a.",
"a.a.a.a.a.a.a.a.a.a.  #.i.i.i.i.i.i.i.i.r.u.i.i.i.i.i.i.i.i.i.i.i.i.i.i.i.i.i.i.i.i.i.u.i.i.i.u.i.i.i.i.i.i.i.i.>.    a.a.a.a.a.",
"a.a.a.a.a.a.a.a.a.a.O &.p.i.i.i.i.i.i.i.i.i.i.i.i.i.i.i.i.i.i.i.i.i.i.i.i.i.i.i.i.i.i.r.i.i.i.r.i.i.i.i.i.i.i.i.w.@   a.a.a.a.a.",
"a.a.a.a.a.a.a.a.a.a.. -.p.i.i.i.i.i.i.i.i.i.i.i.i.i.i.i.r.r.u.i.i.i.i.i.i.i.i.i.i.i.i.r.i.i.u.r.i.i.i.i.i.i.i.r.i.q   a.a.a.a.a.",
"a.a.a.a.a.a.a.a.a.a.X &.p.i.i.i.i.i.r.r.i.i.i.i.i.i.i.i.i.i.i.i.i.i.i.i.i.i.i.i.i.i.i.i.i.i.i.r.r.i.i.i.i.i.i.u.p.f   a.a.a.a.a.",
"a.a.a.a.a.a.a.a.a.a.O &.p.y.i.i.i.i.u.i.i.i.u.r.i.i.i.i.i.i.i.i.i.i.i.i.r.i.i.i.i.i.i.i.i.i.i.i.i.i.i.i.i.i.i.i.p.G   a.a.a.a.a.",
"a.a.a.a.a.a.a.a.a.a.  { p.i.i.i.i.i.i.i.i.i.i.i.r.i.i.i.i.i.i.i.i.i.i.u.r.i.i.i.i.i.i.i.i.i.i.i.r.u.i.i.i.i.i.i.p.L   a.a.a.a.a.",
"a.a.a.a.a.a.a.a.a.a.O Z e.i.i.i.i.i.i.i.i.u.i.i.i.i.i.r.r.u.i.i.i.i.i.i.i.i.i.r.r.i.i.i.i.i.i.i.i.i.i.i.i.i.p.i.i.V   a.a.a.a.a.",
"a.a.a.a.a.a.a.a.a.a.a.i w.<.7.i.i.i.i.i.r.r.i.i.i.i.i.i.i.i.i.i.i.i.i.i.i.i.i.i.u.i.i.i.i.i.i.i.i.i.i.i.i.i.i.i.p.i   a.a.a.a.a.",
"a.a.a.a.a.a.a.a.a.a.a.1 -.;.4.p.i.i.i.i.i.i.i.i.i.i.r.i.i.i.i.i.i.i.i.r.i.i.i.i.i.i.i.i.i.i.i.i.i.i.i.i.i.i.i.i.i.4 a.a.a.a.a.a.",
"a.a.a.a.a.a.a.a.a.a.a.O J <.4.i.i.i.i.i.i.i.i.i.i.i.i.i.i.i.i.i.i.i.i.u.i.i.i.i.i.i.i.i.i.i.i.i.i.i.i.i.i.i.i.1.*.  a.a.a.a.a.a.",
"a.a.a.a.a.a.a.a.a.a.a.O r 6.6.y.9.e.i.i.i.i.i.i.i.i.i.i.i.i.i.i.i.i.i.i.i.r.i.i.i.i.i.r.r.u.i.i.i.i.i.i.i.i.i.$.E   a.a.a.a.a.a.",
"a.a.a.a.a.a.a.a.a.a.a.a.. / 7.:.$.i.i.i.i.i.r.i.i.i.i.i.i.i.i.i.i.i.i.i.i.i.i.i.i.i.i.i.i.i.i.i.u.i.i.i.3.:.6.{ t   a.a.a.a.a.a.",
"a.a.a.a.a.a.a.a.a.a.a.a.  e 3. .9.i.i.i.r.i.3.i.i.i.i.i.i.i.i.i.i.i.i.i.i.i.i.i.i.i.i.i.i.i.i.i.y.p.i.q.d f =.K $ a.a.a.a.a.a.a.",
"a.a.a.a.a.a.a.a.a.a.a.a.a.9 ] =._ 4.i.r.i.8.5.p.i.i.i.i.i.i.i.i.i.i.i.i.r.u.i.i.i.i.i.i.i.i.i.i.i.i.i.C + r ] 3   a.a.a.a.a.a.a.",
"a.a.a.a.a.a.a.a.a.a.a.a.a.  M &.q G i.i.i.1.9.i.i.i.i.i.i.i.i.i.i.i.i.i.i.i.i.i.i.i.i.i.i.p.i.i.i.e.:.  a., 9   a.a.a.a.a.a.a.a.",
"a.a.a.a.a.a.a.a.a.a.a.a.a.  1 W - e t.i.w.:.e.i.i.i.i.i.i.i.i.i.i.i.i.i.i.i.i.i.i.i.i.:.y.i.i.8.w.4.a   a.    a.a.a.a.a.a.a.a.a.",
"a.a.a.a.a.a.a.a.a.a.a.a.a.a.  * O X $.p...%.i.i.i.i.i.i.i.i.i.i.i.i.i.i.i.i.i.i.i.i.y.#.i.p.0.>.w.M O a.a.a.a.a.a.a.a.a.a.a.a.a.",
"a.a.a.a.a.a.a.a.a.a.a.a.a.a.a.  a.  V p.] =.r.r.i.i.i.i.i.i.i.i.i.i.i.i.i.i.i.i.i.i.q.+.i.i.-.3.$.+ a.a.a.a.a.a.a.a.a.a.a.a.a.a.",
"a.a.a.a.a.a.a.a.a.a.a.a.a.a.a.a.a.a.- q Z $.r.$.i.i.i.i.i.i.i.i.i.i.i.i.i.4.i.i.i.p.4.4.i.w...W 3 a.a.a.a.a.a.a.a.a.a.a.a.a.a.a.",
"a.a.a.a.a.a.a.a.a.a.a.a.a.a.a.a.a.a.  O t @.w.o.i.i.i.i.i.i.i.i.i.i.i.i.7.` p.i.i.i.;.7.i.%.K = . a.a.a.a.a.a.a.a.a.a.a.a.a.a.a.",
"a.a.a.a.a.a.a.a.a.a.a.a.a.a.a.a.a.a.a.a.a.e 0...i.i.i.i.i.i.i.i.i.i.i.i.o.3.0.Q V -.+.w.3.i   a.a.a.a.a.a.a.a.a.a.a.a.a.a.a.a.a.",
"a.a.a.a.a.a.a.a.a.a.a.a.a.a.a.a.a.a.a.a.a.o B ' i.i.i.p.p.i.i.i.i.i.i.w.{ p.) & r ` *.o.-   a.a.a.a.a.a.a.a.a.a.a.a.a.a.a.a.a.a.",
"a.a.a.a.a.a.a.a.a.a.a.a.a.a.a.a.a.a.a.a.a.a.- x i.i.K W i.y.i.p.i.i.i.<.>.#.- X 9 ( C , a.a.a.a.a.a.a.a.a.a.a.a.a.a.a.a.a.a.a.a.",
"a.a.a.a.a.a.a.a.a.a.a.a.a.a.a.a.a.a.a.a.a.a.a.O ] w.e 5 1.3.+.i.p.i.y.{ ~ X a.a.$ * a.a.a.a.a.a.a.a.a.a.a.a.a.a.a.a.a.a.a.a.a.a.",
"a.a.a.a.a.a.a.a.a.a.a.a.a.a.a.a.a.a.a.a.a.a.a.  q %.O - { 9.` 8.w.i.;.) 3 X a.a.  a.a.a.a.a.a.a.a.a.a.a.a.a.a.a.a.a.a.a.a.a.a.a.",
"a.a.a.a.a.a.a.a.a.a.a.a.a.a.a.a.a.a.a.a.a.a.a.a.  @   a.> t *.P <.9.W $   a.a.a.a.a.a.a.a.a.a.a.a.a.a.a.a.a.a.a.a.a.a.a.a.a.a.a.",
"a.a.a.a.a.a.a.a.a.a.a.a.a.a.a.a.a.a.a.a.a.a.a.a.a.    a.a.; ..~ { D X   a.a.a.a.a.a.a.a.a.a.a.a.a.a.a.a.a.a.a.a.a.a.a.a.a.a.a.a.",
"a.a.a.a.a.a.a.a.a.a.a.a.a.a.a.a.a.a.a.a.a.a.a.a.a.a.a.a.a.a.k -.t O X a.a.a.a.a.a.a.a.a.a.a.a.a.a.a.a.a.a.a.a.a.a.a.a.a.a.a.a.a.",
"a.a.a.a.a.a.a.a.a.a.a.a.a.a.a.a.a.a.a.a.a.a.a.a.a.a.a.a.a.a.  $ . a.a.a.a.a.a.a.a.a.a.a.a.a.a.a.a.a.a.a.a.a.a.a.a.a.a.a.a.a.a.a.",
"a.a.a.a.a.a.a.a.a.a.a.a.a.a.a.a.a.a.a.a.a.a.a.a.a.a.a.a.a.a.    a.a.a.a.a.a.a.a.a.a.a.a.a.a.a.a.a.a.a.a.a.a.a.a.a.a.a.a.a.a.a.a."
};
