/* XPM */
static char *result[] = {
/* columns rows colors chars-per-pixel */
"64 64 181 2 ",
"   c #040404",
".  c #090807",
"X  c #090708",
"o  c #0C0C0C",
"O  c #100F0E",
"+  c #0F100F",
"@  c #11130E",
"#  c #110F11",
"$  c #141414",
"%  c #171816",
"&  c #1A1A16",
"*  c #1C1C1B",
"=  c #181617",
"-  c #201E18",
";  c #1F201F",
":  c #23221C",
">  c #29271F",
",  c #242423",
"<  c #252827",
"1  c #2B2B24",
"2  c #2B2C2B",
"3  c #282B27",
"4  c #312F2C",
"5  c #2E302E",
"6  c #34322B",
"7  c #3A362D",
"8  c #37342B",
"9  c #312F31",
"0  c #2E3231",
"q  c #333433",
"w  c #333A36",
"e  c #3D3B33",
"r  c #3B3B3A",
"t  c #373938",
"y  c #413E34",
"u  c #3C413E",
"i  c #454439",
"p  c #49473C",
"a  c #4C4A3D",
"s  c #444136",
"d  c #413E40",
"f  c #3F4542",
"g  c #434443",
"h  c #4C4B43",
"j  c #494749",
"k  c #4C4D4C",
"l  c #464946",
"z  c #524E42",
"x  c #524F4E",
"c  c #4F524E",
"v  c #545245",
"b  c #56534A",
"n  c #5A5649",
"m  c #5D5A4C",
"M  c #585346",
"N  c #4D4E50",
"B  c #4F5752",
"V  c #545453",
"C  c #595757",
"Z  c #565955",
"A  c #595759",
"S  c #5B5C5B",
"D  c #595A56",
"F  c #625E4E",
"G  c #605C50",
"H  c #615F5D",
"J  c #5C615D",
"K  c #57615C",
"L  c #666253",
"P  c #696656",
"I  c #6B6857",
"U  c #6E6B5A",
"Y  c #65645C",
"T  c #716D5C",
"R  c #73715E",
"E  c #5F5F62",
"W  c #615E60",
"Q  c #5E6562",
"!  c #646464",
"~  c #666A67",
"^  c #6A6966",
"/  c #646C6A",
"(  c #6B6C6A",
")  c #706E6E",
"_  c #6D726D",
"`  c #757361",
"'  c #7A7663",
"]  c #7D7966",
"[  c #6E7672",
"{  c #6E7973",
"}  c #747573",
"|  c #747A76",
" . c #797975",
".. c #7B7B7A",
"X. c #777676",
"o. c #827E6B",
"O. c #77807B",
"+. c #7B817B",
"@. c #86816E",
"#. c #89836E",
"$. c #8A8571",
"%. c #8E8A74",
"&. c #858179",
"*. c #918D76",
"=. c #948F7A",
"-. c #96917B",
";. c #9A957D",
":. c #9B987F",
">. c #817F81",
",. c #7E8782",
"<. c #848482",
"1. c #838B85",
"2. c #8D8A87",
"3. c #858D8A",
"4. c #8D8E8B",
"5. c #888685",
"6. c #908F8C",
"7. c #8E918D",
"8. c #87928C",
"9. c #9E9982",
"0. c #91958F",
"q. c #8E9791",
"w. c #8E9A93",
"e. c #939492",
"r. c #939B94",
"t. c #969F99",
"y. c #9D9D9B",
"u. c #9A9896",
"i. c #A39D84",
"p. c #A59F89",
"a. c #A09F9D",
"s. c #9CA39D",
"d. c #A7A189",
"f. c #ABA58B",
"g. c #AEA98E",
"h. c #A6A59A",
"j. c #B3AD93",
"k. c #B5B095",
"l. c #B9B298",
"z. c #A09FA0",
"x. c #9EA0A2",
"c. c #A4A4A3",
"v. c #A2ABA4",
"b. c #A9A8A5",
"n. c #ACACAB",
"m. c #A3AEA9",
"M. c #B1AFAC",
"N. c #A6B1AB",
"B. c #ABB4AD",
"V. c #AEB8AF",
"C. c #B0B1AC",
"Z. c #ACB8B2",
"A. c #B4B5B3",
"S. c #BCBBB5",
"D. c #BBBCBB",
"F. c #B4BBB7",
"G. c #B4C2BD",
"H. c #BBC5BD",
"J. c #B8C7C1",
"K. c #C5C9C3",
"L. c #C8C9C3",
"P. c #CCCECC",
"I. c #C5C4C5",
"U. c #CFD2CF",
"Y. c #D3D2CD",
"T. c #D3D5D2",
"R. c #D7D8D4",
"E. c #DCDBD4",
"W. c #DBDCDB",
"Q. c #D7DAD9",
"!. c #E0DFD7",
"~. c #E2DFD9",
"^. c #DEE1DC",
"/. c #E2E2DC",
"(. c #E0DFE0",
"). c #E3E4E2",
"_. c #ECEBEC",
"`. c #E7E8E7",
"'. c #F4F4F4",
"]. c #FFFFFF",
"[. c None",
/* pixels */
"[.[.[.[.[.[.[.[.[.[.[.[.[.[.[.[.[.[.[.[.[.[.[.[.[.[.[.[.[.[.[.[.[.[.[.[.[.[.[.[.[.[.[.[.[.[.[.[.[.[.[.[.[.[.[.[.[.[.[.[.[.[.[.[.",
"[.[.[.[.[.[.[.[.[.[.[.[.[.[.[.[.[.[.[.[.[.[.[.[.[.[.[.[.[.[.[.[.[.[.[.[.[.[.[.[.[.[.[.[.[.[.[.[.[.[.[.[.[.[.[.[.[.[.[.[.[.[.[.[.",
"[.[.[.[.[.[.[.[.[.[.[.[.[.[.[.[.[.[.[.[.[.[.[.[.[.[.[.[.[.[.[.[.[.[.[.[.[.[.[.[.[.[.[.[.[.[.[.[.[.[.[.[.[.[.[.[.[.[.[.[.[.[.[.[.",
"[.[.[.[.[.[.[.[.[.[.[.[.[.[.[.[.[.[.[.[.[.[.[.[.[.[.[.[.[.[.[.[.[.[.[.[.[.[.[.[.[.[.[.[.[.[.[.[.[.[.[.[.[.[.[.[.[.[.[.[.[.[.[.[.",
"[.[.[.[.[.[.[.[.[.[.[.[.[.[.[.[.[.[.[.[.[.[.[.[.[.[.[.[.[.[.[.[.[.[.[.[.[.[.[.[.[.[.[.[.[.[.[.[.[.[.[.[.[.[.[.[.[.[.[.[.[.[.[.[.",
"[.[.[.[.[.[.[.[.[.[.[.[.[.[.[.[.[.[.[.[.[.[.[.[.[.[.[.[.[.[.[.[.[.[.[.[.[.[.[.[.[.[.[.[.[.[.[.[.[.[.[.[.[.[.[.[.[.[.[.[.[.[.[.[.",
"[.[.[.[.[.[.[.[.[.[.[.[.[.[.[.[.[.[.[.[.[.[.[.[.[.[.[.[.[.[.[.[.[.[.[.[.[.[.[.[.[.[.[.[.[.[.[.[.[.[.[.[.[.[.[.[.[.[.[.[.[.[.[.[.",
"[.[.[.[.[.[.[.[.[.[.[.[.[.[.[.[.[.[.[.[.[.[.[.[.[.[.[.[.[.[.[.[.[.[.[.[.[.[.[.[.[.[.[.[.[.[.[.[.[.[.[.[.[.[.[.[.[.[.[.[.[.[.[.[.",
"[.[.[.[.[.[.[.[.[.[.[.[.[.[.[.[.[.[.[.[.[.[.[.[.[.[.[.[.[.[.[.[.[.[.[.[.[.[.[.[.[.[.[.[.[.[.[.[.[.O > [.[.[.[.[.[.[.[.[.[.[.[.[.",
"[.[.[.[.[.[.[.[.[.[.[.[.o [.[.[.[.[.[.[.[.[.[.[.[.[.[.[.[.[.[.[.[.[.[.[.[.[.[.[.[.[.[.[.[.[.[.[.[.[.F $.h [.[.[.[.[.[.[.[.[.[.[.",
"[.[.[.[.[.[.[.[.[.[.[.p [.[.[.[.[.[.[.[.[.[.[.[.[.[.[.[.[.[.[.[.[.[.[.[.[.[.[.[.[.[.[.[.[.[.[.[.[.[.[.F g.o.[.[.[.[.[.[.[.[.[.[.",
"[.[.[.[.[.[.[.[.[.[.U a [.[.[.[.[.[.[.[.[.[.[.[.[.[.[.[.[.[.[.[.[.[.[.[.[.[.[.[.[.[.[.[.[.[.[.[.[.[.[.[.#.f.[.[.[.@ [.[.[.[.[.[.",
"[.[.[.[.[.[.O [.[.R ' [.[.[.[.[.[.[.[.[.[.[.[.[.[.[.[.[.[.[.[.[.[.[.[.[.[.[.[.[.[.[.[.[.[.[.[.[.[.[.[.[.7 g.] [.[.v , [.[.[.[.[.",
"[.[.[.[.[.e [.[.T :.* [.[.[.[.[.[.[.[.[.[.[.[.[.[.[.[.[.[.[.[.[.[.[.[.[.[.[.[.[.[.[.[.[.[.[.[.[.[.[.[.[.o *.T [.[.p $.[.[.[.[.[.",
"[.[.[.[.M , [.p :.R [.[.[.[.1 [.[.[.[.[.[.[.e a [.[.[.[.[.[.[.[.[.[.[.[.[.[.[.[.[.[.[.[.[.[.[.[.[.[.[.[.[.F ] [.[.[.$.1 [.[.[.[.",
"[.[.[.8 I [.[.*.;.R [.[.[.z p [.[.[.[.[.[.[.s ' 1 [.[.[.[.[.[.[.[.[.[.[.[.[.[.[.[.[.[.a i [.[.[.[.[.[.[.[.i -.[.[.[.U z [.[.[.[.",
"[.[.[.` v [.: d.i.[.[.[.m 9.[.[.[.[.[.[.[.. [.v ] [.[.[.[.[.[.[.[.[.[.[.[.[.[.[.6 ' ] m p [.[.1 m a n [.[.6 d.7 [.[.L T [.[.[.[.",
"[.[.[.=.[.[.e j.] [.[.o %.U [.[.[.[.[.[.[.[.[.& i.1 [.[.[.[.[.[.[.[.[.[.[.[.[.[.n $.p [.[.[.[.8 d.$.] [.[.7 :.y [.[.L #.1 [.[.[.",
"[.[.M ] [.[.M k.I [.[.n f.v [.[.[.[.[.[.[.[.[.[.#.7 [.[.[.[.[.[.[.[.[.[.[.[.[.[.U e [.[.[.[.[.[.M j.@.[.[.M ] [.[.[.*.-.a [.[.[.",
"[.[.$.` [.[.T k.L [.e *.d.[.[.[.[.[.[.[.[.[.[.[.b y [.[.[.[.[.[.[.[.[.[.[.[.[.[.] a [.[.[.[.[.[.[.;.;.[.[.T n [.[.[.-.#.[.[.[.[.",
"[.[.9.o.[.[.] f.y [.T g.9.[.[.[.[.[.[.[.[.[.[.& ` [.[.[.[.[.[.[.[.[.[.[.[.[.[.[.G ` [.[.[.[.[.[.[.T #.[.[.o.F [.[.#.-.a [.[.[.[.",
"[.[.n %.[.[.$.j.m [.e p.;.[.[.[.[.[.[.[.[.[.[.U P [.[.[.[.[.[.[.[.[.[.[.[.[.[.[.G m [.[.[.[.[.[.[.e m [.v *.[.[.[.f.] [.[.[.[.[.",
"[.[.[.@.m [.*.k.=.[.[.I k.b [.[.[.[.[.[.[.[.' g.e [.[.[.[.[.[.[.[.[.[.[.[.[.[.[.[.z [.[.[.[.[.[.[.a 1 [.R y [.[.:.=.7 [.[.[.[.[.",
"[.[.[.P ;.[.e k.l.P [.[.*.d.o.p : * [.[.p ;.l.d.h [.[.[.[.[.[.[.[.[.[.[.[.[.[.[.[.z ] [.[.[.[.[.: i   a v [.[.#.%.M [.[.[.[.[.[.",
"[.[.[.[.o.%.[.@.j.] [.[.p ;.-.-.T p y P $.-.l.f.$.[.[.[.[.[.[.[.[.[.[.[.[.[.[.[.[.[.p.9.@.T [.[.1 * 6 M 8 [.T *.z [.[.[.[.[.[.[.",
"[.[.[.[.e -.m [.=.g.3 [.[.[.b P 7 ] ` 7 [.[.m 9.%.G [.[.[.[.[.[.[.[.[.[.[.[.[.[.[.i j.p.L ` :.k.] U U 1 $ I R 1 X [.[.[.[.[.[.[.",
"[.[.[.[.[.: P e 3 9.o.1 [.[.T $.F 6 [.[.[.[.[.: T ' i [.[.[.[.[.[.[.[.[.[.[.[.[.[.` G X [.[.o % s P R o.-.] y [.[.[.[.[.[.[.[.[.",
"[.[.[.[.[.[.@ M 6 m L b P ` %.s [.[.[.[.[.[.[.[.6 L I $ [.[.[.[.[.[.[.[.[.[.[.[.6 i # $ * 9 d r [.[.[.z z [.[.[.[.[.[.[.[.[.[.[.",
"[.[.[.[.[.[.[.& G o.9.j.=.P - [.[.[.[.[.q 3 % O o : * o o # = g x b V j t =     , r j S W E r [.[.[.[.[.[.[.[.[.[.[.[.[.[.[.[.[.",
"[.[.[.[.[.[.[.[.[.1 i p [.[.[.[.[.[.[.[.* k E S V i g , o j E C ^ 2.u.C g C y o 1 j W W S 2 [.[.[.[.[.[.[.[.[.[.[.[.[.[.[.[.[.[.",
"[.[.[.[.[.[.[.[.[.[.[.[.[.[.[.[.[.[.[.[.[.* j E ! A 2 # 2 ! A x._.].].W.e.t W 2  .t t g r [.[.[.[.[.[.[.[.[.[.[.[.[.[.[.[.[.[.[.",
"[.[.[.[.[.[.[.[.[.[.[.[.[.[.[.[.[.[.[.[., S ..r t 2 g * j S ..].].].].].].A.r j } R.4.( K._ [.[.[.[.[.[.[.[.[.[.[.[.[.[.[.[.[.[.",
"[.[.[.[.[.[.[.[.[.[.[.[.[.[.[.[.[.[.[.S e.K.^.L.c.A.q j S N _.].].].].].].]...k r h.T.r.L.E.X.[.[.[.[.[.[.[.[.[.[.[.[.[.[.[.[.[.",
"[.[.[.[.[.[.[.[.[.[.[.[.[.[.[.[.[.[.S n.+.R.U.).W.) j x V b.].].].].].].].].W.k k j A.A.C.S.s.( [.[.[.[.[.[.[.[.[.[.[.[.[.[.[.[.",
"[.[.[.[.[.[.[.[.[.[.[.[.[.[.[.[.q J 5.} Y.W.Q.`.P.q ..N W '.].].].].].].].].].C V V b n.T.R.e.| k [.[.[.[.[.[.[.[.[.[.[.[.[.[.[.",
"[.[.[.[.[.[.[.[.[.[.[.[.[.[.[.[.g j q F.).A.U.^.! ) } S S ].].].].].].].].].].S V E A j R.B.7.k ( , [.[.[.[.[.[.[.[.[.[.[.[.[.[.",
"[.[.[.[.[.[.[.[.[.[.[.[.[.[.[.[.< 2 h ^.D.x.H.0.! } 2. .H _.].].]._.z.n.'.].'.S ( o.4.E +.K.t 2 V 2 [.[.[.[.[.[.[.[.[.[.[.[.[.[.",
"[.[.[.[.[.[.[.[.[.[.[.[.[.[.[.* * [.J Q.e.s.4.D ) <.4.o.S b.].].].5.) k b.].T.Z H 6.e.5.l _ ( o + [.[.[.[.[.[.[.[.[.[.[.[.[.[.[.",
"[.[.[.[.[.[.[.[.[.[.[.[.[.[.[.[.[.5 3.P.7.B.g H b 6.a.<.g g T.].].~ * * D.'.S V } e.u.&.< ! _ @ [.[.[.[.[.[.[.[.[.[.[.[.[.[.[.[.",
"[.[.[.[.[.[.[.[.[.[.[.[.[.[.[.[.[.5 1.x.n.t.( 2 ) } c.u.~ k ! S.`.W.e.} n.k k S } 0.( h , 0.D B [.[.[.[.[.[.[.[.[.[.[.[.[.[.[.[.",
"[.[.[.[.[.[.[.[.[.[.[.[.[.[.[.[.[.J ( 1.H.7.~ 5 q d !  .! e.! ) ^ ^ C 2 * q X.( ( q q i B h.| l 2 [.[.[.[.[.[.[.[.[.[.[.[.[.[.[.",
"[.[.[.[.[.[.[.[.[.[.[.[.[.[.[.[.[.J O.+.H.8.q.s.| / ..O.c M.A.M.! q q , 9 c.b.} H ( t.J.F.m.w.* * [.[.[.[.[.[.[.[.[.[.[.[.[.[.[.",
"[.[.[.[.[.[.[.[.[.[.[.[.[.[.[.[.[.Q [ / G.s.s.G.J.q.| 3.+.X.S.4.X.>.u.( ! n.n.A J | m.H.N.B.O.$ % [.[.[.[.[.[.[.[.[.[.[.[.[.[.[.",
"[.[.[.[.[.[.[.[.[.[.[.[.[.[.[.[.[.l c { B ,.B.G.J.J.w.m.Q k } B.Q._.T.`.n.e.! d w.w.G.N.| B.K $ [.[.[.[.[.[.[.[.[.[.[.[.[.[.[.[.",
"[.[.[.[.[.[.[.[.[.[.[.[.[.[.[.[.[.[.+ B 6 { _ G.Z.J.J.[ } A.I.D.(.A.D.D.A.D.u.^ J w.G.O.| x.5   [.[.[.[.[.[.[.[.[.[.[.[.[.[.[.[.",
"[.[.[.[.[.[.[.[.[.[.[.[.[.[.[.[.[.[.[.[.; u Q O.O.8.Q w.X.T.W.n.4...<.<.5.>.z.z.3.} 8.D s.~ * [.[.[.[.[.[.[.[.[.[.[.[.[.[.[.[.[.",
"[.[.[.[.[.[.[.[.[.[.[.[.[.[.[.[.[.[.[.[.[.; { f 8.,.k x.I.a.M.S.D.Y.E.~.W.Y.P.W.(.F.f K 8.: % [.[.[.[.[.[.[.[.[.[.[.[.[.[.[.[.[.",
"[.[.[.[.[.[.[.[.[.[.[.[.[.[.[.[.[.[.[.[.5 [.u { B { _ ~ X.b.R.E.W.E.!.!.~.A.5.5.A A u { B & 5 [.[.[.[.[.[.[.[.[.[.[.[.[.[.[.[.[.",
"[.[.[.[.[.[.[.[.[.[.[.[.[.[.[.[.[.[.[.[.$ [.[.g Z K K t k Y.R.~.E.!.!.~./././.5.f l c f $ [.$ [.[.[.[.[.[.[.[.[.[.[.[.[.[.[.[.[.",
"[.[.[.[.[.[.[.[.[.[.[.[.[.[.[.[.[.[.[.[.* [.[.[.w < B l q S.Y.~./.R././.E.L.b.2 u u u $ [.[.[.= [.[.[.[.[.[.[.[.[.[.[.[.[.[.[.[.",
"[.[.[.[.[.[.[.[.[.[.[.[.[.[.[.[.[.[.[.[.q + [.[.[.[.< u - 5.u.u.).h.).Y.}  .< , * ; o [.[.[.X 9 [.[.[.[.[.[.[.[.[.[.[.[.[.[.[.[.",
"[.[.[.[.[.[.[.[.[.[.[.[.[.[.[.[.[.[.[.[.* * [.[.[.[.[.[.[.r X.^ P.h.M.Z ( q o [.  [.[.[.[.[.% j [.[.[.[.[.[.[.[.[.[.[.[.[.[.[.[.",
"[.[.[.[.[.[.[.[.[.[.[.[.[.[.[.[.[.[.[.[.[.2 [.[.[.[.[.[.[.+ g g ..4.) k r o % [.[.[.[.[.[.[.* [.[.[.[.[.[.[.[.[.[.[.[.[.[.[.[.[.",
"[.[.[.[.[.[.[.[.[.[.[.[.[.[.[.[.[.[.[.[.[.[.% [.[.[.[.[.[.[.= 3 2 V j V % o [.[.[.[.[.[.[.= 2 [.[.[.[.[.[.[.[.[.[.[.[.[.[.[.[.[.",
"[.[.[.[.[.[.[.[.[.[.[.[.[.[.[.[.[.[.[.[.[.[.o [.[.[.[.[.% $ * o 2 ; % w $ * + % [.[.[.[.[., [.[.[.[.[.[.[.[.[.[.[.[.[.[.[.[.[.[.",
"[.[.[.[.[.[.[.[.[.[.[.[.[.[.[.[.[.[.[.[.[.% o X   [.[.[.% < 2   [.0 $ [.* q o $ [.[.[.[.X o [.[.[.[.[.[.[.[.[.[.[.[.[.[.[.[.[.[.",
"[.[.[.[.[.[.[.[.[.[.[.[.[.[.[.[.[.% o   $ o [.[.[.N [.[.< <.g   [.w [.[.2 A k 2 [.[.[.    * o [.[.[.[.[.[.[.[.[.[.[.[.[.[.[.[.[.",
"[.[.[.[.[.[.[.[.[.[.[.[.[.[.[.[.[.[.0 S * [.[.[.[.V [.[.[.6.b.# [.[.[.[.A ..x.[.[.[.[.[.[.* $ + o * [.[.[.[.[.[.[.[.[.[.[.[.[.[.",
"[.[.[.[.[.[.[.[.[.[.[.[.[.[.[.[., [.; k , [.[.[.[.r [.[.[.[.[.[.[.[.[.[.[.[.[.[.[.j [.[.[.[.; r u [.o [.[.[.[.[.[.[.[.[.[.[.[.[.",
"[.[.[.[.[.[.[.[.[.[.[.[.[.[.[.[.[.[.[.[.[.[.[.[.[.[.[.[.[.[.[.[.[.[.[.[.[.[.[.[.[.[.[.[.[.[.* 9 6 [.[.[.[.[.[.[.[.[.[.[.[.[.[.[.",
"[.[.[.[.[.[.[.[.[.[.[.[.[.[.[.[.[.[.[.[.[.[.[.[.[.[.[.[.[.[.[.[.[.[.[.[.[.[.[.[.[.[.[.[.[.[.[.[.  [.[.[.[.[.[.[.[.[.[.[.[.[.[.[.",
"[.[.[.[.[.[.[.[.[.[.[.[.[.[.[.[.[.[.[.[.[.[.[.[.[.[.[.[.[.[.[.[.[.[.[.[.[.[.[.[.[.[.[.[.[.[.[.[.[.[.[.[.[.[.[.[.[.[.[.[.[.[.[.[.",
"[.[.[.[.[.[.[.[.[.[.[.[.[.[.[.[.[.[.[.[.[.[.[.[.[.[.[.[.[.[.[.[.[.[.[.[.[.[.[.[.[.[.[.[.[.[.[.[.[.[.[.[.[.[.[.[.[.[.[.[.[.[.[.[.",
"[.[.[.[.[.[.[.[.[.[.[.[.[.[.[.[.[.[.[.[.[.[.[.[.[.[.[.[.[.[.[.[.[.[.[.[.[.[.[.[.[.[.[.[.[.[.[.[.[.[.[.[.[.[.[.[.[.[.[.[.[.[.[.[."
};
