/* XPM */
static char *result[] = {
/* columns rows colors chars-per-pixel */
"64 64 196 2 ",
"   c #050405",
".  c #0A0509",
"X  c #0D0C0D",
"o  c #060808",
"O  c #110A0E",
"+  c #150B12",
"@  c #141414",
"#  c #1D121B",
"$  c #1C1C1C",
"%  c #181516",
"&  c #0F1312",
"*  c #20151D",
"=  c #1E211F",
"-  c #22221E",
";  c #1E1D21",
":  c #281D25",
">  c #1C2021",
",  c #232323",
"<  c #2B2C2B",
"1  c #272929",
"2  c #33312D",
"3  c #2E2D31",
"4  c #362C32",
"5  c #343434",
"6  c #393735",
"7  c #3A3A36",
"8  c #3C3C3C",
"9  c #343A39",
"0  c #2E302F",
"q  c #403E3E",
"w  c #3B413D",
"e  c #42413D",
"r  c #48453A",
"t  c #3F3F40",
"y  c #3D4543",
"u  c #3E4947",
"i  c #444443",
"p  c #4A4643",
"a  c #434946",
"s  c #4B4A45",
"d  c #454C49",
"f  c #4C4C4B",
"g  c #49464A",
"h  c #514D46",
"j  c #514E4C",
"k  c #4C514F",
"l  c #54534D",
"z  c #5A574B",
"x  c #5D5A4D",
"c  c #545145",
"v  c #534F51",
"b  c #4D5452",
"n  c #4F5854",
"m  c #545453",
"M  c #595652",
"N  c #545A56",
"B  c #5C5B54",
"V  c #555D5A",
"C  c #5C5C5B",
"Z  c #4F4F50",
"A  c #625F54",
"S  c #615F5D",
"D  c #5B615D",
"F  c #52605D",
"G  c #646154",
"H  c #696656",
"J  c #64635C",
"K  c #69675B",
"L  c #6C695C",
"P  c #726D5C",
"I  c #63604E",
"U  c #5F5E61",
"Y  c #605E61",
"T  c #5B6461",
"R  c #5E6865",
"E  c #576260",
"W  c #646463",
"Q  c #646A65",
"!  c #6B6A64",
"~  c #656C69",
"^  c #6C6C6B",
"/  c #686664",
"(  c #716E61",
")  c #716F6B",
"_  c #6D716D",
"`  c #6B716A",
"'  c #757264",
"]  c #72716C",
"[  c #7A766A",
"{  c #7D7A6A",
"}  c #797666",
"|  c #6E7A73",
" . c #6B7471",
".. c #737573",
"X. c #757975",
"o. c #7B7A74",
"O. c #757D79",
"+. c #7C7D7B",
"@. c #787671",
"#. c #827E6B",
"$. c #817E73",
"%. c #817E7D",
"&. c #7A827D",
"*. c #72827F",
"=. c #86836D",
"-. c #8A8672",
";. c #8D8975",
":. c #82827E",
">. c #878477",
",. c #938D7B",
"<. c #908A75",
"1. c #95927D",
"2. c #9A957D",
"3. c #7D8681",
"4. c #7E8983",
"5. c #828482",
"6. c #888682",
"7. c #838985",
"8. c #8C8B86",
"9. c #848D89",
"0. c #8C8D8B",
"q. c #908C89",
"w. c #86918C",
"e. c #8B928E",
"r. c #969282",
"t. c #9A9582",
"y. c #9E9A83",
"u. c #93928D",
"i. c #9A988D",
"p. c #8F9A95",
"a. c #899693",
"s. c #949592",
"d. c #949A95",
"f. c #9A9A94",
"g. c #969D9A",
"h. c #9C9D9B",
"j. c #989694",
"k. c #A29D85",
"l. c #A29D89",
"z. c #A09C9B",
"x. c #96A19A",
"c. c #9BA29C",
"v. c #8FA49F",
"b. c #AAA58D",
"n. c #A8A389",
"m. c #A1A19D",
"M. c #ABA692",
"N. c #B3AE94",
"B. c #BAB39A",
"V. c #9FAAA4",
"C. c #A3A4A3",
"Z. c #A3ABA5",
"A. c #AAAAA6",
"S. c #A6ADA8",
"D. c #ACADAA",
"F. c #A8A7A3",
"G. c #A5B3AD",
"H. c #ACB2AC",
"J. c #B3B3AE",
"K. c #ABB6B1",
"L. c #ADBAB3",
"P. c #AFBDB8",
"I. c #B4B5B2",
"U. c #B4BBB5",
"Y. c #B9BBB6",
"T. c #B3BEB9",
"R. c #BCBEBB",
"E. c #B6C2BD",
"W. c #BBC3BC",
"Q. c #C2C3BD",
"!. c #BAC5C0",
"~. c #BBC9C3",
"^. c #C3C5C2",
"/. c #C6CBC5",
"(. c #CACBC6",
"). c #C7CAC9",
"_. c #CCCECA",
"`. c #CDD2CC",
"'. c #D3D4CD",
"]. c #D3D5CA",
"[. c #D3D5D3",
"{. c #D6D9D3",
"}. c #DADBD5",
"|. c #DCDDDA",
" X c #D6DDDA",
".X c #CCD4D1",
"XX c #DEE0DC",
"oX c #E1E2DD",
"OX c #DFE3E1",
"+X c #E4E5E3",
"@X c #E6E8E4",
"#X c #ECEDEC",
"$X c #F0EFF0",
"%X c #F6F5F5",
"&X c #FEFEFE",
"*X c None",
/* pixels */
"*X*X*X*X*X*X*X*X*X*X*X*X*X*X*X*X*X*X*X*X*X*X*X*X*X*X*X*X*X*X*X*X*X*X*X*X*X*X*X*X*X*X*X*X*X*X*X*X*X*X*X*X*X*X*X*X*X*X*X*X*X*X*X*X",
"*X*X*X*X*X*X*X*X*X*X*X*X*X*X*X*X*X*X*X*X*X*X*X*X*X*X*X*X*X*X*X*X*X*X*X*X*X*X*X*X*X*X*X*Xm g m G *X*X*X*X*X*X*X*X*X*X*X*X*X*X*X*X",
"*X*X*X*X*X*X*X*X*X*Xj.*X*X*X*Xl k 7 *X*X*X*X*X*X*X*X*X*X*X*X*X*X*X*X*X*X*X*X*X*X*X*X*X*X*Xg H -.t.-.*X*X*X8 8 *X*X*X*X*X*X*X*X*X",
"*X*X*X*X*X*X*X*X*Xm i *Xs.B ( { 6.*X*X*X*X*X*X*X*X*X*X*X*X*X*X*X*X*X*X*X*X*X*X*X*X*X*X*X*X*X*XM G b.,.*X*X*X( ' f *X*X*X*X*X*X*X",
"*X*X*X*X*X*X*X:.B e *Xh { y.{ *X*X*X*X*X*X*X*X*X*X*X*X*X*X*X*X*X*X*X*X*X*X*X*X*X*X*X*X*X*X*X*X*X*Xx n.' _.*X*XP P s *X*X*X*X*X*X",
"*X*X*X*X*X*X^ { l *Xe 1.2.{ ] *X*X*X*X*X*X*X*X*X*X*X*X*X*X*X*X*X*X*X*X*X*X*X*X*X*X*X*X*X*X*X*X*X*Xm G =.! *X*Xl r.r *X*X*X*X*X*X",
"*X*X*X*X*XB r.L *X*XK n.,.:.*X*X*Xx B 8 *X*X*X*X*X*X*X*X*X*X*X*X*X*X*X*X*X*X*X*X*X*X*X*X*X*X*X*X*X*XB =.,.*X*X*X#.-.B *X*X*X*X*X",
"*X*X*X*X/ 2.{ q *Xz 1.N.x *X*XJ L y.B *X*X*X*X*X*X*X*XA u.*X*X*X*X*X*X*X*X*X*X*X*X*X*X*X*Xs B { *X*X*X' n.m *X*Xy.,.B *X*X*X*X*X",
"*X*X*X*X$.N.L *X*X' n.-.*X*Xp L k.L *X*X*X*X*X*X*X*Xq z ' ) *X*X*X*X*X*X*X*X*X$.x l *X*Xe ' <.#.{ *X*X' P ( *XY.l.#.l *X*X*X*X*X",
"*X*X*X*XJ t.[ *XB 2.b.u.#X] ,.k.;.*X*X*X*X*X*X*X*Xi *Xm L L *X*X*X*X*X*X*Xc } ( *Xf f *X*Xm { N.<.*X*XK =.h.#Xm.2.P *X*X*X*X*X*X",
"*X*X*X*X*XG ;.m ( n.N.A @X[ b.k.G *X*X*X*X*X*X*X*X*X*X*XK #.*X*X*X*X*X*X*Xx } *X*X*X2 *X*X*X*X-.k.*X*X-.H +X}.l.-.h *X*X*X*X*X*X",
"*X*X*X*X*X*X-.;.D.2.N.#.(.W.{ n.J *X*X*X*X*X*X*X*X*X*X*XG ' *X*X*X*X*X*X*XB G *X*X*X*X*X*X*X*X*XG / z x s.$Xt.;.h *X*X*X*X*X*X*X",
"*X*X*X*X*X*XB M.i.8.M.N.j.$Xj.b.,.) *X*X*X*X*X*X*X*X*X7 ' $.5.(.*X*X*X*X*Xs 1.*X*X*X*X*X*X*X*Xe s 8.h A +Xq.2.c i *X*X*X*X*X*X*X",
"*X*X*X*X*X*X*X2 P j.>.l.( +X_.K 1.y.H B h m p g l o.( y.s I.I.W ^ *X*X*X*XB L G p m m.*X*X*X*X2 - h A 6.@.{ q *X*X*X*X*X*X*X*X*X",
"*X*X*X*X*X*X*X*Xp B S l.<./ I.|.A.$.A r s z x #.M.B.B.=.e l C ] / C *X*X*XQ m q L f.u.i.>.o.[ ' ' G s } -.K *X*X*X*X*X*X*X*X*X*X",
"*X*X*X*X*X*X*X*X*X6 } A I A L $.r.r.x x K r >.J.:.-.M.k.B &.o.6.W ! i X.j.Q.z.I.K B.M.' =.l L [ [ ' H K h *X*X*X*X*X*X*X*X*X*X*X",
"*X*X*X*X*X*X*X*X*X*Xm m ( ( A B p *X*X+.D.XX@X X^.C.J #.} o.Q.}.}.Q.z.) ].].}.J.{ { @.Y.{.}.m.Q *X*X*X*X*X*X*X*X*X*X*X*X*X*X*X*X",
"*X*X*X*X*X*X*X*X*X*X*X*X*X*X*X*X*Xm , Y.+X+X+X+X+X+X).z P z X.'.}.].].R.Q.{.(.z L G XXXXJ.`.}.F.l *X*X*X*X*X*X*X*X*X*X*X*X*X*X*X",
"*X*X*X*X*X*X*X*X*X*X*X*X*X*X*XB l _ u.XXoXXX+X@X_.A.m.%.r 2 % s ( ) ^ S H 5.J ! K {.}.oX{.m.Q.{.Y.g *X*X*X*X*X*X*X*X*X*X*X*X*X*X",
"*X*X*X*X*X*X*X*X*X*X*X*X*X*X*Xi 0.j.H.}.[.{.#XY.Y.R.Y.+.@ X 2 l S A C A M e % O f ^.}.oX}.m.m._.|.D.i *X*X*X*X*X*X*X*X*X*X*X*X*X",
"*X*X*X*X*X*X*X*X*X*X*X*X*Xh.^ %.D./ ^.|.(.OXR.+.Z 8 1 5 # t W W Y Y Y W S Y S < 8 < f 8.H.'.F.R.f.Y.C.C *X*X*X*X*X*X*X*X*X*X*X*X",
"*X*X*X*X*X*X*X*X*X*X*X*X5._ ..@.Q `.+X)._.g i U U U U 3 3 v ^ ^ %.I.[.F.S C ^ i 5 T Y v 8 g A.|.|.....X.+.*X*X*X*X*X*X*X*X*X*X*X",
"*X*X*X*X*X*X*X*X*X*X*X[.%.U f m D.+X{.I.|.).3.i 5 t 3 ; g ~ ^ / #X&X&X&X$XY ^ C 1 5 Z g w i _ XXD.c.7 d.w *X*X*X*X*X*X*X*X*X*X*X",
"*X*X*X*X*X*X*X*X*X*X*X0._ 1 5 X.).XXZ.C.`..XI.C.C.3.# m Z X.M [.&X&X&X&X&X%XY ) f , 5.H.H. X/.XXR...m m u.i *X*X*X*X*X*X*X*X*X*X",
"*X*X*X*X*X*X*X*X*X*X*XX., i *X^ |.P.e.S.Z.`.`.W.u.Q f @.^ o.C.&X&X%X+X%X&X&Xh.@.C ^ i ^.c.`.XX.X).y g f C W *X*X*X*X*X*X*X*X*X*X",
"*X*X*X*X*X*X*X*X*X*X*X6 8 *X*X^  Xg.9.s.H.].`.H.&.s +.8.+.^ I.&X).^ 5._ Q.&XC.W ^ @.! ! 0.`.`.{.s...1 *X..m *X*X*X*X*X*X*X*X*X*X",
"*X*X*X*X*X*X*X*X*X*X*X*X*X*X8 g..X0.I.O.c././.p.s ] +.u.6.) s.&XU 8 Y < v &Xs.C 0.u.u.@.7 W.Q./.7._ ; *Xo.*X*X*X*X*X*X*X*X*X*X*X",
"*X*X*X*X*X*X*X*X*X*X*X*X*X*X; Z.S.x.`...G././.K W C j.j.q.+.i Y.U + + @ 6.XXm %.8.u.j.o.1 H.Q./.u.m i m *X*X*X*X*X*X*X*X*X*X*X*X",
"*X*X*X*X*X*X*X*X*X*X*X*X*Xf a ..X.E.W.] E.W.W.Q 5 W 8.m.:.u.] C 5.) w 1 C 6 +.+...f.o.f 2 U.W.U.s.D m f *X*X*X*X*X*X*X*X*X*X*X*X",
"*X*X*X*X*X*X*X*X*X*X*X+.1 g W N Q E.S.` m.W.E.` - , w J ! +.A.j.! 6 , : < m 8.! J < < 1 m U.W.W.d.` i $ Z *X*X*X*X*X*X*X*X*X*X*X",
"*X*X*X*X*X*X*X*X*XC %     @ W ~ &.W.Z.] Z.U.E.r.Q D &.7...B U.U.5.g / i q 0.A.+.D 7.X.:.&.W.W.W.c.7.$ = $ C J.*X*X*X*X*X*X*X*X*X",
"*X*X*X*X*X*X*X*Xi 1 $ ; < *X&.` _ L.H.x.x.E.E.m.D :.&.7.7.Q m.Q.A.m 6., X.g F.m &.D Q X.c.~.E.U.x.O.$ i X @ g 5.*X*X*X*X*X*X*X*X",
"*X*X*X*X*X*X*X8 < 5 *X*X*X*XX.N ` &.w.G.L.W.~.W.O.w.a.4.7.+.5.J.4 # g . 1 . m f &.n e.&.G.W.V.x.x.| w p *X8 5 g *X*X*X*X*X*X*X*X",
"*X*X*X*X*Xp 1 *X*X*X*X*X*X*Xm i 9.f D ~ G.!.E.E.!.!.P.4.3.Y A.v * : X . . . < s &.a.K.p.E.Z.D x.x.G N J *X*X*X*Xi < *X*X*X*X*X*X",
"*X*X*X*X*X+ 5 *X*X*X*X*X*X*XX.W ` 8 9  .R L.G.E.P.P.!.G.4.T q.# + + O . O O : 0.K E.G.E.E.*.D E.d.m +.h.*X*X*X*Xi X *X*X*X*X*X*X",
"*X*X*X*X< $ 8 *X*X*X*X*X*X*X*X*X*X6., 9.k 4.a.w.O.V.3.P.p.6.g # + * 4 6 4 O 4 Q.| G.E.G.x.` R G._ m *X*X*X*X*X*X*X% 0 *X*X*X*X*X",
"*X*X*X*X8 8 t *X*X*X*X*X*X*X*X*X*X*X*Xb w.w Z.~ 4. .y w.~ 0.4 # h D.'.|._.S j q.&.x.x.&.` l X.w.< *X*X*X*X*X*X*Xi 5 8 *X*X*X*X*X",
"*X*X*X*X*Xm < *X*X*X*X*X*X*X*X*X*X*X*X5 R b N | V.u ~ y ~ N m.%.}.|.}.oX|.Y.h.i &.&.F ` d a d.l 8 *X*X*X*X*X*X*X, i / *X*X*X*X*X",
"*X*X*X*X*Xm , 5 *X*X*X*X*X*X*X*X*X*X*X*Xa &.0 O.O.d 9.> O.N 3.5.Q.J.'.Y.+.W 6 3.:.D k D w X.W k *X*X*X*X*X*X*X*X$ i *X*X*X*X*X*X",
"*X*X*X*X*X*X*X@ *X*X*X*X*X*X*X*X*X*X*X*X*Xd &.8 F d d d y O.Z  .%.A.I.W m 1 N | F w F w e F i *X*X*X*X*X*X*X*X5 N *X*X*X*X*X*X*X",
"*X*X*X*X*X*X*Xm $ *X*X*X*X*X*X*X*X*X*X*X*X*Xk 1 b b y b & T R R i W W i n  .n 4.d d y 5 T f i *X*X*X*X*X*X*X*X; *X*X*X*X*X*X*X*X",
"*X*X*X*X*X*X*X5   @ 8 ) *X*X*X*X*X*X*X*X*X*X*Xk 5 t k b y 0  .T T $ ~ w.G.T E d V 9 y 9 g m *X*X*X*X*X*X*X*X% 5 *X*X*X*X*X*X*X*X",
"*X*X*X*X*XV.5 , @ < *X*X/ ^ *X*X*X*X*X*X*X*X*X*X*XT V ..n , E F F y 3.v.a.u R W +.f m % 3 *X*X*X*X*X*X^ N     X $ 5.*X*X*X*X*X*X",
"*X*X*X*X*XC.C . 8 *X*X*X*Xi *X*X*X*X*X*X*X*X*X*X*X*X*X*X< n 9 u F u F 3.R T &.*X^.5.t *X*X*X*X*X*X*XU 6.*X*X*XX i 8.[.*X*X*X*X*X",
"*X*X*X*X*X..$ 1 *X*X*X*X*Xi *X*X*X*X*X*X*X*X*X*X*X*X*X0 3 X k 9 b y t > u t !.*X*X*X*X*X*X*X*X*X*Xm Z *X*X*X*X< % 5 _ *X*X*X*X*X",
"*X*X*X*X8 $ % p *X*X*X*X*X8 *X*X*X*X*X*X*X*X*X*X*X*X*X< = > U.8 k y > $ t & t *X*X*X*X*X*X*X*X*X*X8 C *X*X*X*Xm Q & : < *X*X*X*X",
"*X*X*XW U ^ Z *X8 *X*X*X*X*X*X*X*X*X*X*X*X*X*X*X*X*X, % t *X*X*Xb u o ; R t @ *X*X*X*X*X*X*X*X*X*X*X5 *X*X*X*X/ ^ / Z ^ i *X*X*X",
"*X*X*XC C.0.t 0.5 5 8 *X*X*X*X*X*X*X*X*X*X*X*X*X*Xj.5 $ *X*X*X*XF u o ~ T.@ @ O.*X*X*X*X*X*X*X*X*X*X*X*X*X*X*X< 0._ g *XX *X*X*X",
"*X*X*X*XW XXm : *X*X*X*X*X*X*X*X*X*X*X*X*X*X*X*X*Xb ; < *X*X*X*X*Xn , *X*X< $ *X*X*X*X*X*X*X*X*X*X*X*X*X*X8 1 *Xm , f *X, *X*X*X",
"*X*X*X*Xi |.XX..5 *X*X*X*X*X*X*X*X*X*X*X*X*X*X*X*X%.  *X*X*X*X*X*X| m *X*Xl , *X*X*X*X*X*X*X*X*X*X*X*X*X*X*X*X*X% q *X*Xi *X*X*X",
"*X*X*X*X*X^ *X*X*X*X*X*X*X*X*X*X*X*X*X*X*X*X*X*X*XU , *X*X*X*X*X*X*X*X*X*XC : *X*X*X*X*X*X*X*X*X*X*X*X*X*X*X*X*X*X*X*X/ *X*X*X*X",
"*X*X*X*X*X*X*X*X*X*X*X*X*X*X*X*X*X*X*X*X*X*X*X*X*X< i *X*XW *X*X*X*X*X*Xi 5.$ b *X*X*X*X*X*X*X*X*X*X*X*X*X*X*X*X*X*X*X*X*X*X*X*X",
"*X*X*X*X*X*X*X*X*X*X*X*X*X*X*X*X*X*X*X*X*X*X*X*X*X$ *Xb 5 8 *X*X*X*X*X*X$ 5 5 m *X*X*X*X*X*X*X*X*X*X*X*X*X*X*X*X*X*X*X*X*X*X*X*X",
"*X*X*X*X*X*X*X*X*X*X*X*X*X*X*X*X*X*X*X*X*X*X*X*X*X5 +./ X 8 *X*X*X*X*X*X% = % *X*X*X*X*X*X*X*X*X*X*X*X*X*X*X*X*X*X*X*X*X*X*X*X*X",
"*X*X*X*X*X*X*X*X*X*X*X*X*X*X*X*X*X*X*X*X*X*X*X*Xg 5 *X5 + *X*X*X*X*X*X*XX < < *X*X*X*X*X*X*X*X*X*X*X*X*X*X*X*X*X*X*X*X*X*X*X*X*X",
"*X*X*X*X*X*X*X*X*X*X*X*X*X*X*X*X*X*X*X*X*X*X*X*X*X*XC % $ *X*X*X*X*X*X*X$ X 5 *X*X*X*X*X*X*X*X*X*X*X*X*X*X*X*X*X*X*X*X*X*X*X*X*X",
"*X*X*X*X*X*X*X*X*X*X*X*X*X*X*X*X*X*X*X*X*X*X*X*X*X*X5 . , *X*X*X*X*X*X*X% $ < *X*X*X*X*X*X*X*X*X*X*X*X*X*X*X*X*X*X*X*X*X*X*X*X*X",
"*X*X*X*X*X*X*X*X*X*X*X*X*X*X*X*X*X*X*X*X*X*X*X*X*X8 5 < , *X*X*X*X*X*X*X& 5 < 1 *X*X*X*X*X*X*X*X*X*X*X*X*X*X*X*X*X*X*X*X*X*X*X*X",
"*X*X*X*X*X*X*X*X*X*X*X*X*X*X*X*X*X*X*X*X*X*X*X*XX.C , < $ *X*X*X*X*X*X*X$ Z C t 5 *X*X*X*X*X*X*X*X*X*X*X*X*X*X*X*X*X*X*X*X*X*X*X",
"*X*X*X*X*X*X*X*X*X*X*X*X*X*X*X*X*X*X*X*X*X*X*X*X% C.5 ^ 8 *X*X*X*X*X*X*X, I./ A.; *X*X*X*X*X*X*X*X*X*X*X*X*X*X*X*X*X*X*X*X*X*X*X",
"*X*X*X*X*X*X*X*X*X*X*X*X*X*X*X*X*X*X*X*X*X*X*XC U u.C.W *X*X*X*X*X*X*X*Xg  X8 |.f / *X*X*X*X*X*X*X*X*X*X*X*X*X*X*X*X*X*X*X*X*X*X",
"*X*X*X*X*X*X*X*X*X*X*X*X*X*X*X*X*X*X*X*X*X*X*X*XC 8 C ^ *X*X*X*X*X*X*X*X*X8 5 g / *X*X*X*X*X*X*X*X*X*X*X*X*X*X*X*X*X*X*X*X*X*X*X",
"*X*X*X*X*X*X*X*X*X*X*X*X*X*X*X*X*X*X*X*X*X*X*X*X*X*X*X*X*X*X*X*X*X*X*X*X*X*X*X*X*X*X*X*X*X*X*X*X*X*X*X*X*X*X*X*X*X*X*X*X*X*X*X*X",
"*X*X*X*X*X*X*X*X*X*X*X*X*X*X*X*X*X*X*X*X*X*X*X*X*X*X*X*X*X*X*X*X*X*X*X*X*X*X*X*X*X*X*X*X*X*X*X*X*X*X*X*X*X*X*X*X*X*X*X*X*X*X*X*X"
};
