/* XPM */
static char *result[] = {
/* columns rows colors chars-per-pixel */
"64 64 156 2 ",
"   c #030403",
".  c #0B0403",
"X  c #060907",
"o  c #0B0907",
"O  c #070A08",
"+  c #0B0D0B",
"@  c #130605",
"#  c #1A0706",
"$  c #130907",
"%  c #120D0C",
"&  c #1D0A0A",
"*  c #07110B",
"=  c #0C110E",
"-  c #11100E",
";  c #110E11",
":  c #0E1411",
">  c #121513",
",  c #191513",
"<  c #141916",
"1  c #191917",
"2  c #161C19",
"3  c #1C1D1B",
"4  c #240C0B",
"5  c #2B0D0D",
"6  c #320F0E",
"7  c #27110F",
"8  c #35110F",
"9  c #38110F",
"0  c #300F10",
"q  c #241514",
"w  c #281413",
"e  c #271817",
"r  c #201F1D",
"t  c #2F1A18",
"y  c #341211",
"u  c #3B1313",
"i  c #3D1B17",
"p  c #331F1C",
"a  c #1B221E",
"s  c #1E281F",
"d  c #21211E",
"f  c #2A201F",
"g  c #201F20",
"h  c #1D2622",
"j  c #1E2824",
"k  c #242422",
"l  c #2A2523",
"z  c #252A26",
"x  c #2A2926",
"c  c #252C29",
"v  c #2D2D2A",
"b  c #302927",
"n  c #3C2A27",
"m  c #312F2B",
"M  c #3C2A28",
"N  c #24312B",
"B  c #2D312C",
"V  c #32312E",
"C  c #353532",
"Z  c #393634",
"A  c #363935",
"S  c #3B3A36",
"D  c #373938",
"F  c #3D3C3A",
"G  c #431414",
"H  c #4A1615",
"J  c #411816",
"K  c #4D1817",
"L  c #411718",
"P  c #4F1718",
"I  c #441A19",
"U  c #4C1B19",
"Y  c #511917",
"T  c #541B1A",
"R  c #5B1C1B",
"E  c #631E1D",
"W  c #6A1F1F",
"Q  c #5C211F",
"!  c #65201F",
"~  c #6B201F",
"^  c #5C2221",
"/  c #413C36",
"(  c #413F3C",
")  c #632422",
"_  c #6C2423",
"`  c #6C2824",
"'  c #722322",
"]  c #732A29",
"[  c #792C2A",
"{  c #3F403D",
"}  c #3A4C3D",
"|  c #42423E",
" . c #454542",
".. c #494742",
"X. c #4A4A45",
"o. c #4C4D4A",
"O. c #524340",
"+. c #504E46",
"@. c #514E4B",
"#. c #445045",
"$. c #4E504C",
"%. c #53524D",
"&. c #58554D",
"*. c #555551",
"=. c #585652",
"-. c #575853",
";. c #5B5B55",
":. c #5D5D59",
">. c #605D56",
",. c #615F59",
"<. c #5E605A",
"1. c #64635D",
"2. c #69665D",
"3. c #6A685F",
"4. c #656562",
"5. c #686661",
"6. c #676964",
"7. c #6B6B64",
"8. c #6D6D69",
"9. c #716D65",
"0. c #706F69",
"q. c #73736C",
"w. c #79766C",
"e. c #757571",
"r. c #7C7B74",
"t. c #7D7D79",
"y. c #832A29",
"u. c #882C29",
"i. c #86312E",
"p. c #893231",
"a. c #953533",
"s. c #953834",
"d. c #993835",
"f. c #A73B39",
"g. c #817E73",
"h. c #807F78",
"j. c #84837C",
"k. c #8A877B",
"l. c #858580",
"z. c #868B86",
"x. c #8C8C84",
"c. c #8E8D8B",
"v. c #908F86",
"b. c #908F88",
"n. c #92928B",
"m. c #949494",
"M. c #919F94",
"N. c #9D9F9D",
"B. c #A0A0A0",
"V. c gray73",
"C. c #BDC2BE",
"Z. c #C0C5C0",
"A. c gray80",
"S. c #DADCDA",
"D. c #E0E1E0",
"F. c None",
/* pixels */
"F.F.F.F.F.F.F.F.F.F.F.F.F.F.F.F.F.F.F.F.F.F.F.F.F.F.F.F.F.F.F.F.F.F.F.F.F.F.F.F.F.F.F.F.F.F.F.F.F.F.F.F.F.F.F.F.F.F.F.F.F.F.F.F.",
"F.F.F.F.F.F.F.F.  F.F.F.F.F.F.F.F.F.F.F.F.F.F.F.F.F.F.F.F.F.F.F.F.F.F.F.F.F.F.F.F.F.F.F.F.F.F.F.F.F.F.  1 F.F.F.F.F.F.F.F.F.F.F.",
"F.F.F.F.F.F.F.F.F.F.F.F.F.F.F.F.F.F.F.F.F.F.F.F.F.F.F.F.F.F.F.F.F.F.F.F.F.F.F.F.F.F.F.F.F.F.F.F.F.F.F.F.    X F.F.F.F.F.F.F.F.F.",
"F.F.F.F.F.F.F.X F.F.F.F.F.F.F.F.F.F.F.F.F.F.F.F.F.F.F.F.F.F.F.l F.F.F.F.F.F.F.F.F.F.F.F.F.F.F.F.F.F.F.F.    + g F.F.F.F.F.F.F.F.",
"F.F.F.F.F.F.o + F.F.F.F.F.F.F.F.F.F.F.F.F.F.F.F.F.3 l F.F 0.x.j.j.j.0.$.1 F.1.=.- F.F.F.F.F.F.F.F.F.  o   + + > F.F.F.F.F.F.F.F.",
"F.F.F.F.F.+   o F.F.  > O F.F.F.F.F.F.F.F.F.v ;.7.0.V %.;.| z k f V ;.w.e.- q.&.%., F.F.F.F.F.F.F.F.+ > o F.F.F.F.F.F.F.F.F.F.F.",
"F.F.F.F.F.F.  +   F.  + + + F.F.F.F.F.F.F.  q.%.>...4.%.l F.X * X   F.l %.X.:.%.%.%.F.F.F.F.F.F.F.F.    X F.F.F.F.F.F.F.F.F.F.F.",
"F.F.F.F.F.F.> +   > > o > + F.F.F.- F.F.F.  &.C X.3.B F.F.F.< $.A :   F.X S 1.*.F q.  F.= F.F.F.F.F.    X F.F.F.F.F.F.F.F.F.F.F.",
"F.F.F.F.F.F.  % o > ; +   F.F.F.F.1 > F., O 1.7.6.z   F.  : A.S.D.C.= X   O V <.8.w.1 F , F.F.F.F.F.F.+           F.F.F.F.F.F.F.",
"F.F.F.F.F.F.F.O . X ; > 1 F.F.F.F.F.1 x , g V C v ; F.X O 4.C.} N j.e.X   F.  v x v a l F.F.1 F.F.F.F.  >   + O + 1 F.F.F.F.F.F.",
"F.F.F.F.F.F.F.F.  X ; X k F.F.F.F.+ F.k V Z S C S ( F.X X t.M.<   C N.O F.F.a C V S { F &.v F.F.F.+   + ; + ; 3 + g X F.F.F.F.F.",
"F.F.F.F.F.F.F.- 3 X ;     F.F.F.F.> > 3 ;.F <.A Z  .j X : D C.#.j z.-.* F.F.( S | V ;.d 1 +   F.F.      > g k ;   3 o F.F.F.F.F.",
"F.F.F.F.F.F.  > 1 > k ( F 8.F m   ; v *.F -.o. .-.F  .F.O + X.m.N.6.O   F.k v *.$.&.v 2.S : F.1 x m k 3 x v 3   O     F.F.F.F.F.",
"F.F.F.F.F.F.; v F :.e.*. .o.C v x > k {  .:.D 4.F q.o.C F.O X     X   O C S o.D -.| &.B D k X  .=.;.:.*.o.7.<.F V d F.F.F.F.F.F.",
"F.F.F.F.F.F.F @.v v Z *.6.r.c.b.b.X.F l.l.-.o.o.e.;.<.-.Z v r F.  F.v { X.*.;.6.F $.7.0.*.z o.7.0.7.6.:.@.| C k x Z F.F.F.F.F.F.",
"F.F.F.F.F.O k C 4.j.b.h.4.0.e.8.q.o.V c.r.o.| X.B o.8.8.j.7.S o.-.X.F e.8.8.X.X.7.%...z.e.v j.j.x.;.l.l.x.4.z.j.,.| F 3 F.F.F.F.",
"F.F.+ X O X.;.t.| r.+.,.4.@.0.-.6.k x :.*.8.*.-.S  .%.:.t.j.0.%...:.t.1.:.1.;.| %.%.t.7.0.- ;.;.*.<.1.-.2.=.;.3.<.S V   F.F.F.F.",
"F.O :     v S :.1.&.X.&.r.*.1.3.-.v g e.q.r.D $. .....F S S ( ( F X.*.*.X.Z  .-.3.;.v.3.<.o &.>. .1.2.&.1.X.1.V 1.Z v F.F.F.F.F.",
"F.  + F.F.- ..| >.| 9.| j.,.1.7.*.C C x.t.X.-.*.%.X... .S V %.X.( F V  . .F F S o.o.x.1.+.1 2.;.O.( 9.%.2.S q.| ..;.1 F.F.F.F.F.",
"F.+ < F.F.F.x &./ | w.&.k.;.q.7.%.C k %.F | *.Z b b l f g , X.*.:.:.v k B F S S #.*.o.| | a &.| | Z 9.C w.+.&.=...&.+ X F.F.F.F.",
"F.+ O F.F.F., %.V o.;.| &.F { S 3 v F C ..{ + @ G 5 5 G H H y l D l 9 6 & @ @ & - S C v 1.V , S | X.+.S S C d v v m       F.F.F.",
"F.X O F.F.F.  v m m C V F v S d 1 k v S C @ @ @ G W G 4 & 4 y 5 0 G P T Y H 6 & u $ C Z | | - d b Z V x r d f m x   F.  X X F.F.",
"F.F.    F.F.F.F.r x S V S x 3.S x q w w 5 5 & & 5 H ~ ~ W R R E R R H u 9 5 G Y @ 4 4 V ;.| - v ..| =.| | C S r F.F.F.F.  >   F.",
"F.F.        F.F.+ S &.( :.z h.;.m 4 9 H H G 6 0 @ 6 G R ' ' E R R E R Y H R W 6 @ 6 9 6 $ - . C %.o.r.X.&.m S , y F.F.F.F.  O F.",
"F.F.F.F.F.2 a     S ..X.1.F h.q.x 5 4 9 R G G 9 F.  H R H W ' ' ' ' ~ ~ ' E 5 . 4 6 H G 9 6 @ ( 1.>.g.1.S V M s.Q Q F.F.F.    F.",
"F.F.F.F.F.F.    : Z S x 1 a  .r.Z G H E ~ 9 Y 6 F.F.. R ' Y G H H P R E H #   F.G 6 R G H H 4 %.&.t.j.:.1 > ^ ^ L ) [ F.F.F.  F.",
"F.F.F.F.F.F.F.F.  > > v 1.k.6.k./ G W ' R H R 4 F.F.F.. H W E R G H H G G @ F.F.H 5 T H R H 4 :.1.j.o.> < & i.y y ) Q F.F.F.X F.",
"F.F.F.F.F.F.4 i F.< k 7.j.v.6.e. .4 W ' E Y ' # F.F.F.F.. 6 W E H 9 6 9 # F.F.F.  & H Y P R 7 7.| +   = v S I ) y Q F.F.F.  X F.",
"F.F.F.F.F.F.i y i y | 2.x.v.x.o.S 5 H R H ' W F.F.F.F.F.F.  4 4 @ . F.F.F.F.F.F.F.& R H ! ~ , v o 2 S q.7.-.1 T & F.F.F.F.  X F.",
"F.F.F.F.F.F.U U ) i.p | x.n.x.1.&.. 5 H ~ W 5 F.F.F.F.F.F.F.F.F.F.F.F.F.F.F.F.F.F.F.W K 8 H o X V 1.k.v.e. .+ X F.F.F.F.X   F.F.",
"F.F.F.F.F.T U ` f.^ % 2 { o.S | :.@ H E R 5 F.F.F.F.F.F.F.F.F.F.F.F.F.F.F.F.F.F.F.F.E 4 # 4 < C q.q.x.v.7.S X :   O X     X F.F.",
"F.F.F.F.F.F.F.` s.y + 3 > O : h o.  . 6 5 F.F.F.F.F.F.F.F.F.F.F.F.F.F.F.F.F.F.F.F.F.& F.  % d j.x.7.h.0.X.z F.F.O = O =   F.F.F.",
"F.F.F.F.F.F.F.F.F.O k 1.t. .g < a   F..   F.F.F.F.F.F.F.F.F.F.F.F.F.F.F.F.F.F.F.F.F.  F.  + | x.x.1.7.x.4.3 F.F.F.F.F.F.F.F.F.F.",
"F.F.F.F.F.F.F.F.F.F.a :.c.8. .2 3 = F.F.F.F.F.F.F.F.F.F.F.F.F.F.F.F.F.F.F.F.F.F.F.F.F.F.F.  *.l.q.1.x.x.*.; F.F.F.F.F.F.F.F.F.F.",
"F.F.F.F.F.F.F.F.F.F.; -.6.1 h V B :   F.F.F.F.F.F.F.F.F.F.F.F.F.F.F.F.F.F.F.F.F.F.F.F.F.F.  :.j.c.t.n.t. .  F.F.F.F.F.F.F.F.F.F.",
"F.F.F.F.F.F.F.F.F.F.; -.V B j.*.e.k   F.F.F.F.F.F.F.F.F.F.F.F.F.F.F.F.F.F.F.F.F.F.F.F.F.F.  7.l.:.c.t.e.C   F.F.F.F.F.F.F.F.F.F.",
"F.F.F.F.F.F.F.F.F.F.> %.C F n.*.-.C   F.F.F.F.F.F.F.F.F.F.F.F.F.F.F.F.F.F.F.F.F.F.F.F.F.F.X c 1 , z 2 c 3 O F.F.F.F.F.F.F.F.F.F.",
"F.F.F.F.F.F.F.F.F.  :  .%.C k  .8.F F.F.F.F.F.F.F.F.F.F.F.F.F.F.F.F.F.F.F.F.F.F.F.F.F.F.F.> X : : O + X = O F.F.F.F.F.F.F.F.F.F.",
"F.F.F.F.F.F.F.F.F.F.O g *.z.n.n.e.@.F.F.F.F.F.F.F.F.F.F.F.F.F.F.F.F.F.F.F.F.F.F.F.F.F.F.F.+ 3 { | *.F v O F.F.F.F.F.F.F.F.F.F.F.",
"F.F.F.F.F.F.F.F.F.F.    C r.m.n.e.4.F.F.F.F.F.F.F.F.F.F.F.F.F.F.F.F.F.F.F.F.F.F.F.F.F.F.F.k 1.x.8.n.7.:.  F.F.F.F.F.F.F.F.F.F.F.",
"F.F.F.F.F.F.F.F.F.F.F.+ > <.n.n.q.r.F.F.F.F.F.F.F.F.F.F.F.F.F.F.F.F.F.F.F.F.F.F.F.F.F.F.F.m 4.j.4.8.*. .F.F.F.F.< F.F.F.F.F.F.F.",
"F.F.F.F.F.F.F.F.F.F.F.  = v l.n.e.z.F.F.F.F.F.F.F.F.F.F.F.F.F.F.F.F.F.F.F.F.F.F.F.F.F.F.F.Z 1.7.a D v x F.F.F.F.a F.F.F.F.F.F.F.",
"F.F.F.F.F.F.F.F.F.F.  + > = x ,.;.n.% F.F.F.F.F.F.F.F.F.F.F.F.F.F.F.F.F.F.F.F.F.F.F.F.F.F.F 7.=.2 :.%., F.F.F.  : + F.F.F.F.F.F.",
"F.F.F.F.F.F.F.F.F.: > X F O + z :.l., F.F.F.F.F.F.F.F.F.F.F.F.F.F.F.F.F.F.F.F.F.F.F.F.F.F.| 9.X.a C o.+ X F.X O O   F.F.F.F.F.F.",
"F.F.F.F.F.F.F.F.  X F.F. .V O < V x.k F.F.F.F.F.F.F.F.F.F.F.F.F.F.F.F.F.F.F.F.F.F.F.F.F.F. .w.,.o.< 3 : o y - : + F.F.F.F.F.F.F.",
"F.F.F.F.F.F.F.F.  O F.F.Z  .1   ; :.v F.F.F.F.F.F.F.F.F.F.F.F.F.F.F.F.F.F.F.F.F.F.F.F.F.F.o.j.:.1.a + O % E 0 5 : F.F.F.F.F.F.F.",
"F.F.F.F.F.F.F.F.X > F.F.k :. .2 + = 2 F.4 y F.F.F.F.F.F.F.F.F.F.F.F.F.F.F.F.F.F.F.F.F.F.  X.q.X.:./ 1   _ _ J y + = : F.F.F.F.F.",
"F.F.F.F.F.F.F.F.: O F.F.1 4. .o.< + O [ p.T & F.F.F.F.F.F.F.F.F.F.F.F.F.F.F.F.F.F.F.F.F.  X.e.&.1...k + _ ! u.> = + + X F.F.F.F.",
"F.F.F.F.F.F.F.F.2   F.F.% o. . . .a O w s.Q $ F.F.F.F.F.F.F.F.F.F.F.F.F.F.F.F.: F.F.F.F.% #.j.%.,.S d a , & w : +   F.F.F.F.F.F.",
"F.F.F.F.F.F.F.F.  + F.F.+ *.C %.r.Z < % ] L 5 F.F.F.F.F.F.F.F.F.F.F.F.F.F.F.F.N > < F.F.a ..r.| @.V = = + < : + F.F.F.F.F.F.F.F.",
"F.F.F.F.F.F.F.F.F.a   2 ; o.;. .q.%.< o & @ F.F.F.F.F.F.F.F.F.F.F.F.F.F.F.F.F.F.a +   F.k o.| / X.-   > O + < a : F.F.F.F.F.F.F.",
"F.F.F.F.F.F.F.F.F.  X   F. .4.C C r. .< = F.F.F.F.F.F.F.F.F.F.F.F.F.F.F.F.F.F.F.O   >   > | + | S X : a O < : a F.F.F.F.F.F.F.F.",
"F.F.F.F.F.F.F.F.    X = F.Z :.Z ;.t.4.+ O F.F.F.F.F.F.F.F.F.F.F.F.F.F.F.F.F.F.= < X         + z d = < = c j : F.F.F.F.F.F.F.F.F.",
"F.F.F.F.F.< F.F.O : : 2 X z :.*.*.6.j.;   F.F.F.F.F.F.F.F.F.F.F.F.F.F.F.F.F.F.F.= a T L G J = < : = < < * a a O F.F.F.F.F.F.F.F.",
"F.F.F.F.F.  = : F.:   = O 1 | o.v n O.1 F.F.F.F.F.F.F.F.F.F.F.F.F.F.F.F.F.F.F.F.F.H T L K Q = = X o X = F.< : X F.F.F.F.F.F.F.F.",
"F.F.F.F.F.= : X       O 2 : = : o y.U ) @ F.F.F.F.F.F.F.F.F.F.F.F.F.F.F.F.F.F.F.F.' G 8 T u = h : + :   F.F.F.X F.F.F.F.F.F.F.F.",
"F.F.F.F.F.F.: = = O : X * = X O u ' u y L F.F.F.F.F.F.F.F.F.F.F.F.F.F.F.F.F.F.F.F.F.4 L ~ > O O 5 1 O <   F.F.F.F.F.F.F.F.F.F.F.",
"F.F.F.F.F.: + O < < N : h j : X 7 I U ! U u F.F.F.F.F.F.F.F.F.F.F.F.F.F.F.F.F.F.F.F.= = o : = % y.H 0 o   F.F.F.F.F.F.F.F.F.F.F.",
"F.F.F.F.F.F.    O O : : + c j O + 5 L Q u   F.F.F.F.F.F.F.F.F.F.F.F.F.F.F.F.F.F.+ + + + a 2 h 7 ' u y R - s F.F.F.F.F.F.F.F.F.F.",
"F.F.F.F.F.F.  2 : : : < = < j 2 < 2 % & o + + : F.  F.F.F.F.F.F.F.F.F.F.F.F.F.F.O : O > 2 : 2 - H L H u O O F.F.F.F.F.F.F.F.F.F.",
"F.F.F.F.F.F.X < h + < c a : < : < O :     : =   < F.F.F.F.F.F.F.F.F.F.F.F.F.F.F.F.O + : : = < h w ^ 4 u + < < + F.F.F.F.F.F.F.F.",
"F.F.F.F.F.F.  : * ; : { e.c.m.D *.$.O         F.F.F.F.F.F.F.F.F.F.F.F.F.F.F.F.F.  < X O X + h < :   < 3 > < z 2 F.F.F.F.F.F.F.F.",
"F.F.F.F.F.F.F.F.F.F.h 6.<.8.$. .k +     F.F.F.F.F.F.F.F.F.F.F.F.F.F.F.F.F.F.F.  O X < :               X       F.F.F.F.F.F.F.F.F.",
"F.F.F.F.F.F.F.F.F.F.F.F.  F.D F.F.F.F.F.F.F.F.F.F.F.F.F.F.F.F.F.F.F.F.F.F.F.F.F.F.F.F.F.F.F.F.F.F.F.F.F.F.F.F.F.F.F.F.F.F.F.F.F."
};
