/* XPM */
static char *_fc80b4130884983d79fb08d2a26a9049uocB1qLc5cHa5yA[] = {
/* columns rows colors chars-per-pixel */
"64 64 177 2 ",
"   c #302916",
".  c #352F19",
"X  c #36301A",
"o  c #3D351D",
"O  c #3F381D",
"+  c #40371E",
"@  c #433A1F",
"#  c #483F1F",
"$  c #463D20",
"%  c #483F21",
"&  c #47401F",
"*  c #474021",
"=  c #4A4121",
"-  c #4A4021",
";  c #484221",
":  c #494221",
">  c #4A4221",
",  c #484022",
"<  c #494022",
"1  c #484122",
"2  c #494122",
"3  c #484023",
"4  c #494023",
"5  c #494123",
"6  c #4A4122",
"7  c #4B4122",
"8  c #4A4123",
"9  c #494222",
"0  c #484223",
"q  c #494223",
"w  c #494323",
"e  c #4A4222",
"r  c #4B4322",
"t  c #4A4223",
"y  c #4B4223",
"u  c #4A4323",
"i  c #4B4323",
"p  c #484121",
"a  c #4C4321",
"s  c #4C4323",
"d  c #4D4323",
"f  c #4A4423",
"g  c #4D4423",
"h  c #4C4523",
"j  c #4D4623",
"k  c #494024",
"l  c #4A4024",
"z  c #4A4124",
"x  c #494224",
"c  c #4A4224",
"v  c #4B4224",
"b  c #4A4324",
"n  c #4B4324",
"m  c #4B4225",
"M  c #4B4325",
"N  c #4C4224",
"B  c #4C4324",
"V  c #4D4324",
"C  c #4C4325",
"Z  c #4D4325",
"A  c #4E4325",
"S  c #4B4424",
"D  c #4B4524",
"F  c #4B4425",
"G  c #4C4424",
"H  c #4D4424",
"J  c #4C4524",
"K  c #4D4524",
"L  c #4C4425",
"P  c #4D4425",
"I  c #4C4525",
"U  c #4D4525",
"Y  c #4E4524",
"T  c #4E4425",
"R  c #4E4525",
"E  c #4D4624",
"W  c #4C4625",
"Q  c #4D4625",
"!  c #4D4725",
"~  c #4F4624",
"^  c #4E4724",
"/  c #4E4625",
"(  c #4F4625",
")  c #4E4725",
"_  c #4F4725",
"`  c #4D4526",
"'  c #4E4426",
"]  c #4E4526",
"[  c #4F4526",
"{  c #4D4626",
"}  c #4D4726",
"|  c #4E4626",
" . c #4F4626",
".. c #4E4726",
"X. c #4F4726",
"o. c #4F4627",
"O. c #4F4727",
"+. c #4C4324",
"@. c #4F4825",
"#. c #4E4826",
"$. c #4F4826",
"%. c #4F4926",
"&. c #4F4826",
"*. c #504725",
"=. c #504626",
"-. c #504726",
";. c #514726",
":. c #514727",
">. c #514825",
",. c #504826",
"<. c #514826",
"1. c #504926",
"2. c #514926",
"3. c #514827",
"4. c #504927",
"5. c #514927",
"6. c #524826",
"7. c #524926",
"8. c #524827",
"9. c #534827",
"0. c #524927",
"q. c #534927",
"w. c #504A26",
"e. c #514A26",
"r. c #514A27",
"t. c #524A26",
"y. c #534A26",
"u. c #524A27",
"i. c #534A27",
"p. c #524B27",
"a. c #534B27",
"s. c #544A25",
"d. c #544B26",
"f. c #544A27",
"g. c #554A27",
"h. c #544B27",
"j. c #554B27",
"k. c #534C27",
"l. c #544C26",
"z. c #544C27",
"x. c #554C27",
"c. c #564C27",
"v. c #514927",
"b. c #514728",
"n. c #544B28",
"m. c #544C28",
"M. c #554C28",
"N. c #554D28",
"B. c #564C28",
"V. c #574C28",
"C. c #564D28",
"Z. c #574D28",
"A. c #564E28",
"S. c #574E28",
"D. c #574F29",
"F. c #544B28",
"G. c #584D28",
"H. c #584F28",
"J. c #584E29",
"K. c #594E29",
"L. c #57512A",
"P. c #575029",
"I. c #585029",
"U. c #595029",
"Y. c #595129",
"T. c #5A512A",
"R. c #5B512B",
"E. c #5B522B",
"W. c #5C532B",
"Q. c #5C522A",
"!. c #62552D",
"~. c #65592F",
"^. c #685C2F",
"/. c #665A30",
"(. c #6B5D32",
"). c #6E6134",
"_. c #716335",
/* pixels */
"t.t.H.t.#.%.%.#.l.l.#.& * 0 & O # * * 0 # # & 0 J J 0.J * x J J ` J $ $ + $ $ o + @ @ + + # # & G.G.G.G.J @ @ @ % @ $ o o o o o ",
"J t.t.0 & ; * w f * @ W #.f #.f @ # & J #.g #.f t.t.#.t.W W J ` x Z $ $ + $ $ $ + @ # % 0 J G.Y.c.s.f.t.g # @ + + @ $ o X o X $ ",
"+ $ 0 $ O O * @ & * f * g 0 0 0 $ $ 0 #.f # @ f J t.W W W * w w $ Z 0.J * $ $ $ o o % 0 % A >.Y.t.g # $ # o o o + $ + o + $ $ $ ",
"@ x $ + O @ @ @ & $ f & 0 # 0 J t.0 g f #.#.& @ $ x W * W #.w * J $ J ` J $ $ + + o @ -.*.A & s.f.f.f.0 A J # # # $ + + + $ $ % ",
"@ @ @ @ @ O @ & $ # $ 0 g 0 J 0 Z 0 A f J x $ $ $ $ * * * $ $ @ Z J % x J x x $ @ % + $ A A A f.g & g J A # $ 0 % x + $ $ $ $ Z ",
"o O & @ * * * O @ @ 0 # g @ # 0 -.-.0 A Z x $ * $ $ $ $ * O x $ $ x Z % x b.n.J -.@ % @ @ # & % # 0 t.& + $ % A % % % % $ $ Z b.",
"o O * #.w @ * & @ # 0 0 $ # $ 0 J J 0 -.0.x $ + $ $ x $ $ $ * $ # $ % J J b.f.f.-.A Z J A # # @ + + 0 A J J J -.-.Z x Z ` J b.-.",
"o o O @ * @ & O O O # 0 % 0 #.0 Z 0 J t.Y.N.N.x $ * x * * @ O O @ @ Z b.b.J t.t.f.f.=.0 A -.J 0 # + @ 0 #.0 A -.-.Z Z -.n.H.H.n.",
"X O O o O $ O $ # @ & & 0 # # # x J #.E.W.Y.E.L.0.` ` ` x % $ $ * * $ * x J -.b.x J J J Z f.J x $ o o Z J Z Z t.-.t.J 0.b.N.N.N.",
"X X X o O $ % % & w + x 0 J W % b.N.Y.N.t.N.N.0.D.0.F x ` x x x J #.* $ @ x J J -.t.b.9.n.n.n.Z $ + + $ J J J t.` Z -.t.0.N.N.c.",
"X X X X o $ % % f x W J Z -.0.0.J N.0.0.N.J N.N.N.J % F ` x Z Z 0 J 0 $ O $ $ x J n.J J J J x Z Z % Z Z Z t.-.f.N.t.t.Y.N.f.c.#.",
"o X X o o X o $ * $ + x 0 J n.n.0.N.N.0.t.#.t.t.b.Z % % x % % % Z J $ x $ $ # * 0.x $ Z J Z $ x % % $ J -.-.n.N.n.n.Y.Y.f.-.t.J ",
"X X o O $ o + o $ $ $ $ + $ -.Z ` 0.b.` Z b.b.b.J Z Z $ $ % % ' x $ @ @ @ # + * J 0.n.t.J b.$ $ $ % x Z 0.0.N.n.0.0.N.N.f.J % % ",
"  o o o o $ + $ $ o $ $ @ $ x Z Z b.` J =.b.b.b.` % Z x % $ $ $ o + + o O $ Z % $ x Z J 0.` x ` Z % Z ` Z -.n.H.n.N.N.0.t.0.-.0.",
"o o O o + $ + $ $ + o + $ $ Z -.Z Z Z Z % % % % $ + $ $ $ $ % X + + o + o $ 0 0 0 # + J 0.N.J O.x x $ $ $ 0 J n.N.N.0.0.n.n.n.n.",
"O O o o X o $ o $ $ $ $ o o % Z % b.Z Z % % $ $ $ $ $ $ o $ $ o o o + o o + $ $ @ $ $ $ * t.0.N.0.x F % $ @ Z 0 J Z x 0.t.% % % ",
"O o o $ o $ $ $ @ @ @ @ @ + % A @ % Z b.% $ % % % % % % + + + + o X X X o o O # + O $ & # 0 t.Y.H.0.O.$ * $ + + O O O * W J J + ",
"X $ o o o $ $ $ @ @ @ + + + @ @ $ =.b.9.Z % % % % % % $ % % $ $ $ o o o X o O + $ * O @ @ @ # 0 b.N.N.J J * * * @ @ o O + @ # + ",
"$ $ o o o o o $ + + + @ + + + @ $ % b.% % % % % % % @ # % % % $ o + + + + $ + * * * @ @ @ & # g #.f J x * & * * * + O O @ # + O ",
"$ o $ $ $ o o o + + + X o o o @ $ % 9.% % % b.% % @ @ @ % $ % $ $ + @ * $ + @ @ * O O # @ 0 A t.0 $ @ + f * & & @ @ # @ * * + + ",
"$ $ o $ $ $ o o + + + + + + + % % % % ' % b.% b.x % @ 0 x Z Z x Z % A g 0 # + o @ O $ * 0 & & 0 0 & # + & * @ * # 0 0 + + o o O ",
"$ $ + + o o $ o + + + + + + + % $ $ ' $ % % % % $ $ 0 % Z J Z * 0 J g 0 0 f # # $ * @ * $ # & J A & & + + @ $ O + $ # $ & # $ + ",
"+ $ o $ $ $ o $ + + + + + + + + $ $ ' b.% % $ $ Z b.9.-.J x % x W # # + & * # f & & j & g & 0 f f + @ & & # + o + & * # # # + # ",
"% $ $ $ $ o $ o + + + + + + + + o $ % ' b.b.% % Z J J % 0 % ` ` $ @ O # @ # & & @.@.& f & g 0 * & # 0 0 * g # $ @ @ $ $ $ #.#.$ ",
"$ $ $ $ $ + + $ + + $ + + + + + $ $ $ $ b.% b.b.b.% $ $ o $ o $ # + * + # # O @ # $ f @.>.& $ # 0 $ % # A # =.% f f & # 0 c.J g ",
"o o + X + $ + + + $ + $ % + + % o $ $ $ % % b.% $ $ $ $ $ o % % 0 + @ + # * @ $ # f @.& f @ # # # & # & a # # % # f f.-.f.c.f.g ",
"X + + + $ X + + + + + + + % + % $ o o $ $ % $ $ % % % % $ $ $ % # 0 A # + $ $ $ $ $ % $ # # g 0 g g # # & & % $ & % 0 =.f.f.t.0.",
"$ $ X o + + + + $ + + $ % % + + o o $ $ + + $ $ % % $ $ + $ o % x o + A #.0 W $ $ $ % x & 0 J N.L.t.t.A A =.% % $ $ @ 0 J b.b.J ",
"+ + + + $ + + $ $ + + + + + % % $ $ + + $ + $ $ $ $ % + + $ k x ` Z x ` t.n.t.J ` J ` x -.Z x 0.#.J A 0 9.% % g.V.% $ $ % $ $ @ ",
"+ $ $ + $ + + $ + + + + $ + + + + $ $ % $ $ $ % % % $ % % % F m -.N.b.b.0.n.0.n.D.N.N.H.N.n.J J $ 0 # 0 % % % 9.% % + $ $ $ + + ",
"X + $ $ $ $ + $ $ + + $ $ + $ + % $ $ % $ + % + $ $ % % m b.% k 0.0.0.F.D.0.0.0.` 0.0.N.H.N.N.0.t.g # % $ $ $ $ % % % + + + $ + ",
"$ + $ $ $ + $ $ + $ + + $ $ + % % % % $ $ + + % $ + $ % b.b.m b.b.b.0.N.F.0.D.0.E.E.L.E.K.N.n.N.g 0 Z # % $ $ + $ % % % g.V.9.V.",
"$ $ % $ @ + @ % @ @ + @ $ + $ $ % % % % + $ $ $ $ $ % % % Z 0 Z J n.t.n.n.n.N.Y.K.R.!.R.R.F.F.' x % % % % % $ $ % % g.K.V.9.V.9.",
"+ $ $ + + $ @ + $ @ @ 0 $ $ + $ % % % % % + $ % $ $ % $ $ % % A b.Z Z -.n.N.N.Y.R.R.R.R.R.R.K.K.F.b.D.` $ % % % % % % Z V.!.H.b.",
"Z % $ @ $ $ $ 0 $ % @ % % % $ % % % % % % % % % % $ $ $ % % $ $ $ Z x A ` ` n.n.K.R.R.!.R.K.L.R.W.b.Z % $ % % -.K.b.9.V.R.^.~.R.",
"# 0 % % 0 $ $ Z Z A % Z Z =.x -.b.% % % % % $ % $ =.% $ Z Z $ $ % Z J b.b.0.0.N.b.b.R.!.L.b.F.R.W.D.Z % $ =.9.n.!.Q.Q.Q.H.R.~./.",
"% % % 0 0 % # % Z % -.-.b.J J Z K.% $ $ $ % % % $ % % % Z -.-.Z % x Z b.b.0.0.0.R.K.b.!.R.K.% K.n.K.V.b.=.9.b.Z % b.-.9.b.K.(.^.",
"J J A 0 t.g $ $ @ % % -.t.0 Z $ % % % % $ % % % b.% $ $ $ Z Z Z b.Z % b.` b.0.0.% R.% b.% % K.% n.K.V.K.V.n.b.b.% % % =.-.=.K.!.",
"t.-.*.-.g % @ 0 A 0 x $ $ $ % Z % b.% b.% b.g.b.% % % % % Z % 0 Z Z Z 0.n.Z b.x K.% % % % % K.R.K.W.K.K.!.K.K.H.9.% =.n.K.V.-.n.",
"0 0 A g # # =.# 0 A @ 0 W $ Z b.K.b.b.% % b.% % % % % % -.-.Z % Z -.b.b.b.b.J Z % K.!.!.% % % R.n.K.W.W.~.(.(./.!.K.9.K.!.f.H.!.",
"# 0 0 A A g >.>.0 x $ # x J b.0.b.b.0.F.` ` ` b.0 A # Z Z Z b.b.b.n.-.b.b.9.b.b.Z % % g.g.% % % g.K.g.K.(.).).(.K.!.K.Q.(.~.!.H.",
"n.-.g >.g *.>.g t.g $ A b.` J J b.% b.0.F.b.` x Z A $ 0 % @ =.b.b.b.J Z b.9.Z % % 9.K.Q.K.V.!.K.Q.K.K.g.g.(._.).(.!.~.(.~.!.!.K.",
"A g g g 0 g 0 & t.-.J b.t.0.W #.% Z b.n.0.n.b.` x x Z Z $ $ % 9.-.Z % Z V.V.b.b.% 9.~./.K.V.!.(./.!./.!.V.!.!.(./.K.Q.!.(.!.!.~.",
"-.A t.0 # # & g 0 -.0.0.0.J x J b.Z b.N.N.n.x x $ % b.J % 9.9.9.% % $ 0 9.V.% b.Q.!.~.!.!.!.V.!.!.K.K.V.g.% % K.(.(.~./.(.(.~.R.",
"A # # # $ % 0 A -.Z -.0.0.m.0.J J -.0.n.b.J Z % % % x b.b.n.-.b.$ $ # -.K.V.9.V.g.V.V.V.K.!.V.b.!.!.!.K.% K.V.V.~.(.!.(.(.!.!.K.",
"0 A Z # $ 0 & g n.b.-.t.` 0.` x J J b.t.n.0.-.0 $ Z -.J -.0.J -.-.% =.=.% 9.V.!.K.g.b.K.!.~.R.g.Q.K.!.!.K.V.(.(.(.(.!.!.W.W.!.R.",
"g *.=.& & *.G.>.9.n.J 0.N.N.0.0.0.n.-.0 0 Z % $ x b.N.` 0.n.J b.9.b.% % % 9.Q.!./.g.b.b.b.b.Q./.!.(./.!.~.(.!.!.~.!.!.Q.Q.K.H.V.",
">.g s.s.Q.G.Q.Q.W.K.n.D.D.N.n.n.b.0.n.n.n.t.A % x ` 0.b.0.N.-.-.V.V.=.% 9.% 9.!./.!.K.b.b.Q./.(.(.(.(.(.).!.Q.!.!.Q.Q.Q.K.V.n.9.",
"c.Y.c.c.N.n.H.H.H.0.W 0.N.n.n.Z N.N.N.0.D.O.F x ` O.J x 0 t.J n.n.H.=.9.F.K.K.~././.~.!.K.!.~.!.!././.(.(./.!.!.!.K.K.!.K.K.% K.",
"s.c.G.*.N.H.R.Y.N.n.N.0.b.J t.n.N.N.N.N.D.N.F.4.0.0.J 0 # $ x J 9.V.V.K.W.K.F.V.K.K.V.V.b.n.H.n.% !.!.(.(.% K.% K.K.!.Q.% % K.% ",
"g t.c.Y.f.N.H.N.n.J t.0.0.J A J 0.0.N.N.D.m.F.F.0.N.0.` A g A -.Z A =.b.9.V.n.n.V.K.H.K.K.n.V.K.Q.!._.).(./.!.!.K.!.K.% K.% % % ",
"t.t.t.c.N.n.n.#.0.N.t.N.0.0.t.n.N.t.N.N.O.D.m.m.m.0.N.0.t.J A 0 Z Z $ b.F.b.n.K.K.V.K.~.~.!.K.(.)._._.).(.(.!.!.K.% % K.K.K.b.b.",
"* f t.-.t.N.E.L.t.g t.g t.t.J J 0.0.l.t.t.H.f.-.O.F J Z 0 % 0 # % $ $ % b.n.H.K.K.K.K.!.!.!.!.(._._.(.(.!.Q.R.K.b.K.b.b.% K.% % ",
"@ 0 A -.J -.H.0.0.t.J #.0 0 J Z J g 0 J J g A 0 J x b.% $ % + $ Z -.b.=.b.n.n.n.F.b.n.!.!.!.!./.(.(./.Q.K.Q.K.% b.% b.b.K.% % b.",
"% # % & Z J J J W t.0.N.t.b.-.n.A & 0 $ 0 % Z J x $ Z % % 0 Z Z -.% % b.n.V.V.F.F.V.9.V.!.!.!./.(.).(.)./.K.!.!.R.K.K.R.K.b.% K.",
"A A % 0 J 0.-.-.-.N.N.N.0.b.9.0 0 % # # % 0 J J 0.x Z x Z -.A Z b.-.b.-.b.b.F.F.V.F.V.F.b.K.Q.Q.!./.!.!././.Q.!.K.K.K.b.% % b.b.",
"g A % # f g 0.l.J t.0.0.n.0.0.J J 0 % @ Z 0 -.-.Z % @ % 0 b.b.b.b.J -.n.-.% 9.-.-.9.V.n.9.n.K.Q.~.!.W.W.E.K.F.F.% R.b.% % K.b.b.",
"A 0 % 0 0 #.O.#.J 0 -.n.-.J J Z -.n.A # J -.Z % A -.Z =.-.b.0.b.b.b.Z -.b.9.-.Z -.n.b.Z 9.n.V.K.V.V.n.F.K.F.F.b.b.R.b.% % % % % ",
"t.g 0 g t.t.#.l.t.-.t.-.0.` t.Z -.-.t.-.0 # % A A J b.b.-.b.9.b.b.% % % % % Z Z Z Z Z b.9.9.V.V.F.V.0.b.b.b.b.b.b.b.% b.% % % % ",
"N.t.t.l.-.0 f g J -.t.J D.N.t.J *.g -.& A *.t.J Z f.n.n.n.J -.-.0 % % A % % % Z % Z Z % b.Z 9.9.9.b.x x x x m b.% b.K.b.% % % % ",
"0.0.D.0.O.W g g J t.t.-.J J 0 0 # g g *.*.A A t.n.H.n.b.-.-.Z % % Z % % 0 % Z A J b.-.Z % % 9.-.Z Z % Z % o.m m b.b.b.% % b.b.b.",
"0.J O.N.0.J #.g g A -.-.b.x A 0 & A 0 A 0 % 0 t.n.J x Z -.-.Z A % -.` 0 A A -.J Z Z b.Z Z Z =.b.% Z % Z m b.b.m o.b.b.o.% % % % ",
"J $ W 0.0.L.c.f 0 A t.J J t.-.A 0 A g -.g g A A -.Z % 0 0 0 b.J J J ` b.t.b.-.-.b.Z % x b.b.9.-.$ Z $ $ $ % F.F.b.m b.% % % b.b.",
"J W $ x W t.g g J g 0 g Z -.f.c.n.t.J 0 g 0 0 Z % $ $ =.% 0 b.-.0.0.0.b.0.b.-.b.b.b.0.Z % Z n.9.$ $ % $ $ $ % b.m m b.% % % b.% "
};
