/* XPM */
static char *ad983b9cee4f4f6396fcf2ac31b3ec2bJNzZBKO8E6qM1gTN[] = {
/* columns rows colors chars-per-pixel */
"65 64 204 2 ",
"   c None",
".  c #080604",
"X  c #0E0A07",
"o  c #110D09",
"O  c #16110B",
"+  c #1C160E",
"@  c #1E1710",
"#  c #1F1810",
"$  c #221A0F",
"%  c #241C13",
"&  c #281E15",
"*  c #2B2117",
"=  c #2D2419",
"-  c #31261A",
";  c #35291D",
":  c #392D1E",
">  c #2D2720",
",  c #3B2E21",
"<  c #342A20",
"1  c #3E3223",
"2  c #3C342C",
"3  c #40331F",
"4  c #433425",
"5  c #4C3324",
"6  c #473827",
"7  c #4A3927",
"8  c #41362A",
"9  c #45382B",
"0  c #4B3B2A",
"q  c #513E2C",
"w  c #563424",
"e  c #463C31",
"r  c #653D2B",
"t  c #54422E",
"y  c #58452F",
"u  c #4E4338",
"i  c #534433",
"p  c #594631",
"a  c #5E4A34",
"s  c #52473C",
"d  c #5D4D3C",
"f  c #56483A",
"g  c #5E503D",
"h  c #61422F",
"j  c #624D36",
"k  c #634F39",
"l  c #7A4933",
"z  c #774833",
"x  c #65513A",
"c  c #6B553C",
"v  c #6F593E",
"b  c #6B5537",
"n  c #725A3D",
"m  c #75563B",
"M  c #5F5141",
"N  c #6C5943",
"B  c #695745",
"V  c #735C42",
"C  c #795F43",
"Z  c #745340",
"A  c #776045",
"S  c #7C6245",
"D  c #74624B",
"F  c #7C6449",
"G  c #7E694F",
"H  c #756450",
"J  c #7B6751",
"K  c #7C6B54",
"L  c #844D36",
"P  c #8A4F37",
"I  c #8D513A",
"U  c #85583E",
"Y  c #9C5A3F",
"T  c #80653D",
"R  c #8C5C42",
"E  c #9C5C40",
"W  c #816547",
"Q  c #826648",
"!  c #856A4B",
"~  c #8A6D4D",
"^  c #8F704F",
"/  c #97794A",
"(  c #836C53",
")  c #8A6F50",
"_  c #8D7253",
"`  c #83715A",
"'  c #8C755B",
"]  c #8E785F",
"[  c #927553",
"{  c #957956",
"}  c #997955",
"|  c #957A5A",
" . c #9B7D5A",
".. c #987455",
"X. c #996849",
"o. c #A46144",
"O. c #AE6446",
"+. c #B7694A",
"@. c #BB6D4D",
"#. c #A07E4B",
"$. c #BE714F",
"%. c #A17F5A",
"&. c #8E7A61",
"*. c #997F62",
"=. c #957C62",
"-. c #C07250",
";. c #9D805D",
":. c #A3825D",
">. c #AA855D",
",. c #A78757",
"<. c #B18D57",
"1. c #BB965E",
"2. c #B8935A",
"3. c #9C8263",
"4. c #9F8668",
"5. c #9D8E75",
"6. c #A38561",
"7. c #AB8B65",
"8. c #A28869",
"9. c #AC8E6A",
"0. c #A88962",
"q. c #B18C63",
"w. c #B18F6A",
"e. c #AF916C",
"r. c #A3906E",
"t. c #B69366",
"y. c #B99562",
"u. c #B5936B",
"i. c #BB966B",
"p. c #BE9A6C",
"a. c #BD9A66",
"s. c #B69A75",
"d. c #BC9B72",
"f. c #B59773",
"g. c #AE9576",
"h. c #C59E62",
"j. c #C49C6D",
"k. c #C59B6D",
"l. c #C29E73",
"z. c #C99E70",
"x. c #CCA466",
"c. c #CCA66D",
"v. c #C6A26C",
"b. c #D4AA66",
"n. c #D1A76A",
"m. c #D3AA6E",
"M. c #D7AB68",
"N. c #DEB16C",
"B. c #C5A274",
"V. c #CAA273",
"C. c #CCA67B",
"Z. c #CEAB7B",
"A. c #CEA875",
"S. c #D0A574",
"D. c #D6AC74",
"F. c #D3AB7C",
"G. c #DBAE7C",
"H. c #DEB373",
"J. c #DDB37C",
"K. c #E2B672",
"L. c #E5B973",
"P. c #E9BB75",
"I. c #E5BA7B",
"U. c #EABD7B",
"Y. c #E0B27E",
"T. c #EFC177",
"R. c #FAC677",
"E. c #FDC877",
"W. c #F4C47B",
"Q. c #F9C77B",
"!. c #FDCA7C",
"~. c #F2C377",
"^. c #B69E82",
"/. c #CAAA82",
"(. c #C6A986",
"). c #D7AF82",
"_. c #CDB28C",
"`. c #DBB483",
"'. c #DDBA8B",
"]. c #D4B387",
"[. c #DBBB93",
"{. c #E2B583",
"}. c #E4B986",
"|. c #E8B984",
" X c #E5BC8A",
".X c #E8BD8B",
"XX c #ECC486",
"oX c #EBC18C",
"OX c #E6C088",
"+X c #FBCA81",
"@X c #F4C48C",
"#X c #F7CA8C",
"$X c #FBC98F",
"%X c #F5C682",
"&X c #ECC695",
"*X c #F1C692",
"=X c #FCCD93",
"-X c #F7CE98",
";X c #FBCF99",
":X c #F5CB96",
">X c #FED196",
",X c #FDD29B",
"<X c #DCC4A5",
"1X c #F1D1A3",
/* pixels */
"                                                                                                                                  ",
"                                                                            i i `                                                 ",
"                                                                      M a a = % a x J                                             ",
"                                                                   .W _ F q 0 , t t c V r.                                        ",
"                                      '.                        %.q.C C S %.& - - j c N 0 K                                       ",
"                                      t.                      _ S.j c :.j & 0 , '       8.a                                       ",
"                                    | c.                    ( |.~ W ~ C - S t c         =.N                                       ",
"                        `.p.v.y.2.a.0.                    &.u.}.k a z.Q } c , _       5.B D                                       ",
"                    s.x.M.H.1.Z.                          W =X! C  .....! & C         K t                                         ",
"                    OXW.H.p.                             .F.@X0 C {.a q.6 c !           D                                         ",
"                    XXW.v.                            C.C }.i._ ~ t.} y t y c                             (                       ",
"                    I.M.[.                  8.        7.! .XV  .0.n ! 7 p i C F                         `.2                       ",
"                    I.A.                  3.          N 6. Xc N [ C t k 4 x [ D.d.                      %.9                       ",
"                    H.&X              3.7.          (.c C.i.! c ~ C i t 4 4 ~ k.S F                   d.7 d                       ",
"                    y.              s.N 7.          e.V }.F { x C c 7 1 j : ,.c Q ! x                 ! t j                       ",
"                    t.              ) [ _ e         _ p oXp :.V j V t = 5 ~ j W S - @ 4 `           8.p a 1                       ",
"                  I.j.              _ 6.x i         F :  Xk [ S a t 7 7 q v n ! 0 q O + W ~ ( N | A k V i 0                       ",
"                H.W.j.              S F.0 N x _.  ' * % `.n V S N 9 1 7 y y [ , 6 * , : i.S 4 j x ; S C 4 p 2                     ",
"              v.W.W.p.               .B.W A 1 a 8 l.= < C.C V { j 9 - S y >.6 - 3 Z p ^ ~ 0 6 W ! a c = ; 4 d                     ",
"              c.W.!.F.      <X      V ! w.c i N k i.3.q 9.! _  .p o } ! [ ..} ^ 0.! j ^ q - c n k 1 X & @ , c                     ",
"                H.W.m.    `.1X      ^ 7 9.x t 0 c c &X.Xd. .l.S { < i.F.{.@X$X$X$Xz.[ k 7 p j ~ ; o . * O p H                     ",
"                  c.%XK.I.v._.      3.x k x V o , , *X;X;X*X.X X*XJ.=X;X=X$X$X$X$XS.k 4 j - ..= & o j 4 * S                       ",
"                    c.+XH.a.        f { 1 c p 4 = a *X;X,X;X;X;X;X,X>X;X=X>X$X=X$Xq.: k 4 q $ X 4 c W 4 Q c                       ",
"                      n.K.'.        x * ! = i 0 = k .X-X`.[ -X,X;X,X`.;X=X=X>X=X$Xc t - j & 6 k %.%.* p y                         ",
"                    oXx.I.OX        f 0 * a * S ;.A `.6.c d.,X;X,X;Xi N {.,X>X;XS.* 0 C W ~ >.t.~ ; 0 , c                         ",
"                    c.P.T.J.        N x A * a + A 6.9.C.:X,X,X,X;X,X*XB.0 t.>X=X{.W k.z.i.q.>.C % , : c 9.                        ",
"                    <.!.!.D.          | a c * 7 ; _ F.,X X}.,X,X,X,XJ.A.V._ ;.$Xk.%.z.y.Q x : $ = 6 C 9.                          ",
"                  c.x.!.!.M.1X          ' x a , = A B.:X7.A ,X,X;X*XB._ i.D.=X$X>.q : 5 % * - O : _ ].                            ",
"                  1.R.Q.!.P.`.            F v i t i :.`.! * OX-X,X X} - ~ V.;X$Xz.W k j y i o 7 9.                                ",
"                V.M.R.!.!.+XL.H./.          H V v ! | `.;.t ].,X>XoX_ 7 [ v.=X@Xz.~ W j V 7 D                                     ",
"                v.Q.E.!.!.!.!.!.x.c.Z.          D e.7.-XF.].F.,X,X,X6.! y.G.=XD.k.Q c V V                                         ",
"                  !.E.!.+X!.+X!.n h.x.v.7.        u.;.,X,X,XF.,X,X,X*XV.`.=X@Xz.k...c n (                                         ",
"                    Q.!.!.E.R.,.b t / Q.D.          3.'.,X,XF.,X&X,X,X,X>X>XT.B.i.%.Q <.(                                         ",
"                    XX!.!.E.R.,.1 - j x.I.          s.e.,X,XZ./.u.,X,X,X>X>XD.A.0.W C ..C                                         ",
"                  t.  T.!.!.!.~.$ b / 2.L.            ! ,X,X).c -X,X,X,X;X=XB.v.F                                                 ",
"                  1.Z.  T.!.!.b.T T L.1.m.            3.'.,X-Xi._ ( ^ d.=XJ.z.>.s                                                 ",
"                    4.  t.H.!.~.,.b.2.h.a.              6.,X;X X`.J.Z.V.@XV.k.3                                                   ",
"                        I.N.R.!.2.T.2.T.>.              G *X,X;X;X;X;X=X}.z.Q ,                                                   ",
"                        P.!.M.Q.M.m.2.-X6.                9.;X;X;X>X=X=XV.k.$ V                                                   ",
"                        H.W.E.P.L.:.{ *Xt.(.              N }.;X;X=X=X`.k.a # 0                                                   ",
"                              #XW.Z.A ).d.6.[.              | ,X$X=X|.k.V 9 - ,                                                   ",
"                                      i d.p.6.                u.=X.Xk.j % ^.                                                      ",
"                                        t 6.i.|               V V.q.- . 1 d.                                                      ",
"                                          V C (                 D % o k j (                                                       ",
"                                          B v c ].              u & p  .q h                                                       ",
"                                            7.v s.            ' S O ^ r 0 c 4.                                                    ",
"                                            *.V ! g.          a p % %.o.5 W c                                                     ",
"                                          f.N t F `         Z c 0 r l -.w v j '                                                   ",
"                                          6.i.W V &.      N k V.i E o.-.r c p j /.                                                ",
"                                          J F l.q _ J ( u c t.V.v o.E -.l t ..W 6.                                                ",
"                                            J x t 6 e > % N q.} m -.@.@.l c N W {                                                 ",
"                                                ~ -       s k.Q U Y +.@.l y q @ /.                                                ",
"                                                F i 8.        ` Y @.@.+.L B   > 8.                                                ",
"                                                  t {           Y @.@.@.L D   2 D                                                 ",
"                                                  4 !         B O.$.+.@.I V     i                                                 ",
"                                                  , C 9.      m O.U $.+.I C     8 '.                                              ",
"                                                  f d         Z z & X.+.P 6   ` u 7.                                              ",
"                                                                j o w Y R 2   % = '                                               ",
"                                                                j o j .., 1   9 B c                                               ",
"                                                              s ; f   q.% =     M 9                                               ",
"                                                              2 ;     d 1 O     C 0                                               ",
"                                                              = 9       < X ^.M ` q                                               ",
"                                                              o V       2 .     ` |                                               ",
"                                                              o *.      e .                                                       "
};
